<svg height="512" width="512" xmlns="http://www.w3.org/2000/svg"><path d="M303.625 263.5h-95.249c-4.142 0-7.5-3.357-7.5-7.5s3.358-7.5 7.5-7.5h95.249c4.142 0 7.5 3.357 7.5 7.5s-3.358 7.5-7.5 7.5z" fill="#e5a988"/><path d="M253.725 115.14h-54.831V30.751c0-15.141 12.274-27.416 27.416-27.416 15.141 0 27.416 12.274 27.416 27.416v84.389z" fill="#dd9674"/><g fill="#dd9674"><path d="M218.31 95.541L87.625 473.834c-5.891 17.053 6.775 34.83 24.817 34.83 11.197 0 21.161-7.1 24.817-17.683l136.609-395.44z"/><path d="M364.995 473.834L234.309 95.541h-55.558l136.609 395.44a26.256 26.256 0 0024.817 17.683c18.042 0 30.709-17.777 24.818-34.83z"/></g><path d="M392.804 82.669c0-16.825-13.64-30.465-30.465-30.465H30.466C13.64 52.203 0 65.843 0 82.669v148.995c0 4.964 3.618 9.169 8.522 9.945 47.21 7.471 101.155 22.896 155.237 55.086 74.692-42.008 154.694-55.791 229.046-60.291V82.669z" fill="#f1faff"/><path d="M422.154 52.203h-68.572c16.825 0 30.465 13.64 30.465 30.465V338.17c0 16.826-13.64 30.465-30.465 30.465h68.572c16.825 0 30.465-13.64 30.465-30.465V82.669c0-16.826-13.639-30.466-30.465-30.466z" fill="#dcf5ff"/><path d="M171.466 292.469C111.535 255.008 51.386 238.651 0 231.406V338.17c0 16.826 13.64 30.465 30.465 30.465h31.858a20.038 20.038 0 0014.096-5.824c30.114-29.829 62.105-52.743 95.047-70.342z" fill="#b7e86b"/><path d="M392.975 338.17V227.465c-109.669 6.618-231.654 33.404-330.767 141.171H362.51c16.826 0 30.465-13.64 30.465-30.466z" fill="#d8f1af"/><g><path d="M428.554 370.085c36.299-61.355 6.414-146.183-66.75-189.47-10.722-6.343-21.778-11.44-32.955-15.328-7.915-2.753-16.486-3.225-24.613-1.182-17.467 4.389-33.496 12.143-46.939 23.073-12.422 10.099-12.765 28.876-.743 39.449a94.82 94.82 0 012.586 2.36c27.648 26.157 34.7 63.599 15.75 83.629-3.525 3.726-7.7 6.586-12.341 8.607-15.98 6.957-21.162 27.013-9.97 40.373 12.112 14.459 27.164 27.395 44.815 37.838 16.576 9.807 33.976 16.547 51.359 20.359l.113.025a38.698 38.698 0 0022.447-1.826c23.844-9.413 44.02-25.562 57.241-47.907z" fill="#fceeac"/><path d="M424.86 183.982c-38.826-22.971-82.163-29.091-119.223-20.195 17.147 3.839 34.3 10.522 50.651 20.195 70.947 41.975 99.926 124.232 64.727 183.727-15.928 26.922-42.268 44.568-72.909 51.934 57.236 12.792 114.404-6.166 141.481-51.934 35.199-59.495 6.22-141.752-64.727-183.727z" fill="#fbe77b"/><path d="M286.088 443.864l140.243-120.906a23.323 23.323 0 006.289-8.667l15.354-36.707-33.562-33.562-36.707 15.354a23.331 23.331 0 00-8.667 6.289L248.132 405.908c-9.202 10.673-8.611 26.638 1.353 36.603 9.966 9.964 25.93 10.554 36.603 1.353z" fill="#f9bc66"/><path d="M425.465 232.585s-7.176-30.255 37.961-39.477c21.428-4.378 34.884-12.78 41.568-18 2.348-1.833 5.792-.378 6.123 2.582 2.397 21.463 4.218 84.024-55.907 84.639z" fill="#b7e86b"/><path d="M440.744 288.749l-38.801-38.801c-6.17-6.17-5.978-16.23.422-22.16 6.064-5.619 15.485-5.439 21.331.407l38.801 38.801c6.17 6.17 5.978 16.23-.422 22.16-6.064 5.618-15.485 5.439-21.331-.407z" fill="#a6ced3"/></g><g><circle cx="124.93" cy="139.868" fill="#fbe05c" r="28.025"/><path d="M124.931 92.763a7.726 7.726 0 01-7.726-7.726v-7.89a7.726 7.726 0 1115.452 0v7.89a7.726 7.726 0 01-7.726 7.726zM124.931 210.317a7.726 7.726 0 01-7.726-7.726v-7.89a7.726 7.726 0 1115.452 0v7.89a7.726 7.726 0 01-7.726 7.726zM158.239 106.559a7.727 7.727 0 010-10.928l5.579-5.579a7.727 7.727 0 1110.927 10.928l-5.579 5.579a7.726 7.726 0 01-10.927 0zM75.116 189.683a7.727 7.727 0 010-10.928l5.579-5.579a7.727 7.727 0 1110.927 10.928l-5.579 5.579a7.728 7.728 0 01-10.927 0z" fill="#fceeac"/><g><path d="M187.653 147.595h-7.89a7.726 7.726 0 110-15.452h7.89a7.726 7.726 0 110 15.452zM70.098 147.595h-7.89a7.726 7.726 0 110-15.452h7.89a7.726 7.726 0 110 15.452z" fill="#fceeac"/></g><g><path d="M163.819 189.683l-5.579-5.579a7.727 7.727 0 1110.927-10.928l5.579 5.579a7.727 7.727 0 11-10.927 10.928zM80.695 106.559l-5.579-5.579a7.727 7.727 0 1110.927-10.928l5.579 5.579a7.727 7.727 0 010 10.928 7.726 7.726 0 01-10.927 0z" fill="#fceeac"/></g></g></svg>