<svg id="Layer_1" data-name="Layer 1" xmlns="http://www.w3.org/2000/svg" xmlns:xlink="http://www.w3.org/1999/xlink" viewBox="0 0 849.65 910.75"><defs><style>.cls-1{fill:none;}.cls-2{opacity:0.65;}.cls-3{clip-path:url(#clip-path);}.cls-4{opacity:0.75;}.cls-5{opacity:0.15;}.cls-6{clip-path:url(#clip-path-3);}.cls-7{fill:#efa139;}.cls-8{clip-path:url(#clip-path-4);}.cls-9{fill:#606362;}.cls-10{clip-path:url(#clip-path-5);}.cls-11{fill:#00a7ad;}.cls-12{clip-path:url(#clip-path-6);}.cls-13{clip-path:url(#clip-path-7);}.cls-14{clip-path:url(#clip-path-8);}</style><clipPath id="clip-path" transform="translate(-15.37 -5.56)"><rect id="SVGID" class="cls-1" x="15.37" y="5.56" width="849.65" height="910.76"/></clipPath><clipPath id="clip-path-3" transform="translate(-15.37 -5.56)"><rect id="SVGID-3" data-name="SVGID" class="cls-1" x="212.27" y="346.74" width="455.85" height="455.85"/></clipPath><clipPath id="clip-path-4" transform="translate(-15.37 -5.56)"><rect id="SVGID-4" data-name="SVGID" class="cls-1" x="212.27" y="119.29" width="455.85" height="455.85"/></clipPath><clipPath id="clip-path-5" transform="translate(-15.37 -5.56)"><rect id="SVGID-5" data-name="SVGID" class="cls-1" x="15.37" y="233.01" width="455.85" height="455.85"/></clipPath><clipPath id="clip-path-6" transform="translate(-15.37 -5.56)"><rect id="SVGID-6" data-name="SVGID" class="cls-1" x="15.37" y="5.56" width="455.85" height="455.85"/></clipPath><clipPath id="clip-path-7" transform="translate(-15.37 -5.56)"><rect id="SVGID-7" data-name="SVGID" class="cls-1" x="15.37" y="460.46" width="455.85" height="455.85"/></clipPath><clipPath id="clip-path-8" transform="translate(-15.37 -5.56)"><rect id="SVGID-8" data-name="SVGID" class="cls-1" x="409.17" y="233.01" width="455.85" height="455.85"/></clipPath></defs><title>circular</title><g class="cls-2"><g class="cls-3"><g class="cls-4"><g class="cls-3"><g class="cls-5"><g class="cls-6"><path class="cls-7" d="M668.12,574.66c0,125.88-102,227.93-227.92,227.93S212.27,700.54,212.27,574.66s102-227.92,227.93-227.92,227.92,102,227.92,227.92" transform="translate(-15.37 -5.56)"/></g></g><g class="cls-5"><g class="cls-8"><path class="cls-9" d="M668.12,347.21c0,125.88-102,227.93-227.92,227.93S212.27,473.09,212.27,347.21s102-227.92,227.93-227.92,227.92,102,227.92,227.92" transform="translate(-15.37 -5.56)"/></g></g><g class="cls-5"><g class="cls-10"><path class="cls-11" d="M471.22,460.94c0,125.88-102,227.92-227.92,227.92S15.37,586.82,15.37,460.94,117.42,233,243.3,233,471.22,335.06,471.22,460.94" transform="translate(-15.37 -5.56)"/></g></g><g class="cls-5"><g class="cls-12"><path class="cls-7" d="M471.22,233.49c0,125.87-102,227.92-227.92,227.92S15.37,359.36,15.37,233.49,117.42,5.56,243.3,5.56,471.22,107.61,471.22,233.49" transform="translate(-15.37 -5.56)"/></g></g><g class="cls-5"><g class="cls-13"><path class="cls-9" d="M471.22,688.39c0,125.88-102,227.93-227.92,227.93S15.37,814.27,15.37,688.39,117.42,460.46,243.3,460.46,471.22,562.51,471.22,688.39" transform="translate(-15.37 -5.56)"/></g></g><g class="cls-5"><g class="cls-14"><path class="cls-11" d="M865,460.94c0,125.88-102,227.92-227.93,227.92s-227.92-102-227.92-227.92S511.22,233,637.09,233,865,335.06,865,460.94" transform="translate(-15.37 -5.56)"/></g></g></g></g></g></g></svg>