<svg height="512" width="512" xmlns="http://www.w3.org/2000/svg"><path d="M388.711.936C329.336.825 280.964 49.102 280.965 108.478c.001 41.617 23.641 77.711 58.226 95.589a4.476 4.476 0 012.363 4.635c-1.076 7.274-4.616 24.619-14.81 35.085-2.459 2.525-.178 6.733 3.287 6.091 17.651-3.273 44.424-11.427 54.338-31.288.783-1.568 2.354-2.574 4.107-2.573h.03c59.393 0 107.541-48.147 107.541-107.541C496.046 49.152 448.01 1.047 388.711.936z" fill="#c1e9af"/><path d="M496.045 108.472c0 59.4-48.151 107.54-107.541 107.54h-.031c-1.755 0-3.326 1.006-4.106 2.576-9.915 19.862-36.685 28.012-54.34 31.286-3.459.647-5.738-3.562-3.285-6.087 5.861-6.015 9.515-14.298 11.773-21.637 12.985-4.927 25.702-12.748 31.881-25.127.78-1.57 2.351-2.576 4.106-2.576h.031c59.39 0 107.541-48.14 107.541-107.54 0-16.926-3.911-32.939-10.891-47.186 15.531 18.64 24.862 42.608 24.862 68.751z" fill="#ade194"/><path d="M207.083 387.953H94.042c-27.014 0-48.912-21.899-48.912-48.912V153.523c0-56.729 45.988-102.716 102.716-102.716h5.433c56.729 0 102.716 45.988 102.716 102.716V339.04c.001 27.014-21.898 48.913-48.912 48.913z" fill="#596c76"/><path d="M255.99 156.243v181.506c0 27.724-22.469 50.203-50.203 50.203h-20.529c27.735 0 50.203-22.479 50.203-50.203V156.243c0-29.12-11.804-55.479-30.875-74.551-16.813-16.813-39.261-27.971-64.286-30.383 3.377-.339 6.805-.503 10.264-.503 29.12 0 55.469 11.804 74.551 30.886 19.071 19.072 30.875 45.431 30.875 74.551z" fill="#465a61"/><path d="M233.626 179.474v47.659c0 45.876-37.188 83.064-83.064 83.064s-83.064-37.188-83.064-83.064V158.52l85.053-17.131z" fill="#ffcebf"/><path d="M233.628 179.474v47.662c0 45.873-37.193 83.066-83.066 83.066a83.11 83.11 0 01-9.333-.523c41.589-4.779 73.947-41.869 73.947-86.902v-43.629z" fill="#ffb09e"/><path d="M226.935 159.883l-12.707-22.528H73.265l-10.423 22.528-3.876 19.592h8.533c53.428 3.137 83.062-29.547 83.063-29.549.001.001 29.635 32.685 83.063 29.549z" fill="#596c76"/><path d="M67.499 229.896H56.527c-8.623 0-15.614-6.991-15.614-15.614v-1.029c0-8.623 6.991-15.614 15.614-15.614h10.972zM233.626 229.896h10.972c8.623 0 15.614-6.991 15.614-15.614v-1.029c0-8.623-6.991-15.614-15.614-15.614h-10.972z" fill="#ffcebf"/><path d="M120.928 225.657a7.697 7.697 0 01-7.698-7.698v-12.981a7.698 7.698 0 1115.396 0v12.981a7.697 7.697 0 01-7.698 7.698zM180.196 225.657a7.697 7.697 0 01-7.698-7.698v-12.981a7.698 7.698 0 1115.396 0v12.981a7.697 7.697 0 01-7.698 7.698z" fill="#596c76"/><g><path d="M150.731 271.998a21.404 21.404 0 01-16.169-7.375 7.698 7.698 0 1111.624-10.096 6.02 6.02 0 004.545 2.074 5.956 5.956 0 004.396-1.91 7.699 7.699 0 0111.247 10.515 21.483 21.483 0 01-15.643 6.792z" fill="#596c76"/></g><path d="M285.171 480.919H15.954V299.685a5.507 5.507 0 015.507-5.507h258.204a5.507 5.507 0 015.507 5.507v181.234z" fill="#9facba"/><path d="M285.166 299.832v173.459h-20.529V299.832c0-3.12-2.525-5.656-5.645-5.656h20.529c3.12 0 5.645 2.536 5.645 5.656z" fill="#8d9ca8"/><circle cx="144.875" cy="383.737" fill="#f5f8f9" r="23.115"/><path d="M167.988 383.734c0 12.769-10.347 23.116-23.116 23.116-10.439 0-19.266-6.928-22.13-16.433 1.653.39 3.367.585 5.132.585 12.769 0 23.116-10.347 23.116-23.115 0-2.33-.339-4.568-.985-6.682 10.295 2.318 17.983 11.535 17.983 22.529z" fill="#e8edf2"/><g><path d="M439.79 77.989H337.22c-4.143 0-7.5-3.357-7.5-7.5s3.357-7.5 7.5-7.5h102.57c4.143 0 7.5 3.357 7.5 7.5s-3.357 7.5-7.5 7.5zM439.79 110.457H337.22c-4.143 0-7.5-3.357-7.5-7.5s3.357-7.5 7.5-7.5h102.57c4.143 0 7.5 3.357 7.5 7.5s-3.357 7.5-7.5 7.5zM398.76 142.925h-61.54c-4.143 0-7.5-3.357-7.5-7.5s3.357-7.5 7.5-7.5h61.54c4.143 0 7.5 3.357 7.5 7.5s-3.358 7.5-7.5 7.5z" fill="#80d261"/></g><path d="M506.498 511.064H5.502A5.502 5.502 0 010 505.562v-26.765a5.502 5.502 0 015.502-5.502h500.997a5.502 5.502 0 015.502 5.502v26.765a5.504 5.504 0 01-5.503 5.502z" fill="#d77f4a"/><path d="M511.995 478.946v26.472a5.642 5.642 0 01-5.645 5.645h-20.529a5.642 5.642 0 005.645-5.645v-26.472c0-3.12-2.525-5.656-5.645-5.656h20.529a5.652 5.652 0 015.645 5.656z" fill="#c86d36"/></svg>