<?xml version="1.0" encoding="utf-8"?>
<!-- Generator: Adobe Illustrator 24.0.2, SVG Export Plug-In . SVG Version: 6.00 Build 0)  -->
<svg version="1.1" id="Layer_1" xmlns="http://www.w3.org/2000/svg" xmlns:xlink="http://www.w3.org/1999/xlink" x="0px" y="0px"
	 viewBox="0 0 1934.7 1080.6" style="enable-background:new 0 0 1934.7 1080.6;" xml:space="preserve">
<style type="text/css">
	.st0{fill:#FFFFFF;}
	.st1{clip-path:url(#SVGID_2_);}
	.st2{fill:#00AEB7;}
	.st3{fill:#F2A53A;}
	.st4{clip-path:url(#SVGID_4_);}
	.st5{fill:#282928;}
	.st6{clip-path:url(#SVGID_6_);}
	.st7{fill:none;}
</style>
<title>header</title>
<rect x="16.6" y="0.6" class="st0" width="1918" height="1079.4"/>
<g>
	<defs>
		<rect id="SVGID_1_" x="14.6" y="0.6" width="1920" height="1080"/>
	</defs>
	<clipPath id="SVGID_2_">
		<use xlink:href="#SVGID_1_"  style="overflow:visible;"/>
	</clipPath>
	<g class="st1">
		<path class="st2" d="M1317.9,252.3h-248.4c-0.7-5.5-1.1-11.1-1.1-16.6c0-69.2,56.1-125.3,125.3-125.3
			c69.2,0,125.3,56.1,125.3,125.3C1319,241.2,1318.6,246.8,1317.9,252.3"/>
		<rect x="1210.4" y="132.9" class="st3" width="101.8" height="28.5"/>
	</g>
</g>
<g>
	<defs>
		<path id="SVGID_3_" d="M35.7,0.6C24.6,3,16.7,12.8,16.6,24.2v1031.5c0,13.4,10.8,24.2,24.2,24.3c0,0,0,0,0,0h1869.5
			c13.4,0,24.2-10.9,24.2-24.2V24.2c0-11.4-7.9-21.2-19.1-23.7H35.7z"/>
	</defs>
	<clipPath id="SVGID_4_">
		<use xlink:href="#SVGID_3_"  style="overflow:visible;"/>
	</clipPath>
	<g class="st4">
		<rect x="924.2" y="481.8" class="st3" width="481" height="516.6"/>
		<rect x="1650.8" y="191" class="st3" width="182.7" height="516.6"/>
		<rect x="1181.4" y="229.6" class="st2" width="481" height="68.3"/>
		<rect x="843.6" y="682.2" class="st2" width="264.1" height="115.7"/>
		<rect x="799.2" y="546.4" class="st2" width="88.7" height="6.1"/>
		<rect x="799.2" y="559.1" class="st2" width="88.7" height="6.1"/>
		<rect x="799.2" y="571.8" class="st2" width="88.7" height="6.1"/>
		<rect x="799.2" y="584.6" class="st2" width="88.7" height="6.1"/>
		<rect x="799.2" y="597.3" class="st2" width="88.7" height="6.1"/>
		<rect x="799.2" y="610" class="st2" width="88.7" height="6.1"/>
		<rect x="799.2" y="622.8" class="st2" width="88.7" height="6.1"/>
		<rect x="1542.4" y="936.1" class="st3" width="6.1" height="88.7"/>
		<rect x="1529.7" y="936.1" class="st3" width="6.1" height="88.7"/>
		<rect x="1517" y="936.1" class="st3" width="6.1" height="88.7"/>
		<rect x="1504.2" y="936.1" class="st3" width="6.1" height="88.7"/>
		<rect x="1491.5" y="936.1" class="st3" width="6.1" height="88.7"/>
		<rect x="1478.8" y="936.1" class="st3" width="6.1" height="88.7"/>
		<rect x="1466" y="936.1" class="st3" width="6.1" height="88.7"/>
		<rect x="1237.3" class="st3" width="619" height="18.5"/>
		<path class="st2" d="M917.7,181.3c-16.4,0-29.7,13.3-29.7,29.7s13.3,29.7,29.7,29.7s29.7-13.3,29.7-29.7c0,0,0,0,0,0l0,0
			C947.4,194.6,934.1,181.3,917.7,181.3 M917.7,233.1c-12.2,0-22-9.8-22-22s9.8-22,22-22s22,9.8,22,22S929.8,233.1,917.7,233.1
			L917.7,233.1"/>
		<path class="st2" d="M673.3,678.5c-16.4,0-29.7,13.3-29.7,29.7s13.3,29.7,29.7,29.7s29.7-13.3,29.7-29.7v0l0,0
			C703,691.8,689.7,678.5,673.3,678.5 M673.3,730.2c-12.2,0-22-9.8-22-22s9.8-22,22-22s22,9.8,22,22l0,0
			C695.3,720.4,685.4,730.2,673.3,730.2L673.3,730.2"/>
		<rect x="575.4" y="876.5" class="st5" width="88.7" height="6.1"/>
		<rect x="575.4" y="889.2" class="st5" width="88.7" height="6.1"/>
		<rect x="575.4" y="901.9" class="st5" width="88.7" height="6.1"/>
		<rect x="575.4" y="914.7" class="st5" width="88.7" height="6.1"/>
		<rect x="575.4" y="927.4" class="st5" width="88.7" height="6.1"/>
		<rect x="575.4" y="940.1" class="st5" width="88.7" height="6.1"/>
		<rect x="575.4" y="952.9" class="st5" width="88.7" height="6.1"/>
		<rect x="1633.5" y="978.9" class="st2" width="243.4" height="101.1"/>
		<rect x="1773.2" y="964.2" class="st3" width="27.4" height="115.8"/>
		<path class="st3" d="M1710.4,978.9c0,11,8.9,19.9,19.9,19.9c11,0,19.9-8.9,19.9-19.9c0-11-8.9-19.9-19.9-19.9c0,0,0,0,0,0l0,0
			C1719.3,959,1710.4,967.9,1710.4,978.9L1710.4,978.9 M1715.5,978.8c0-8.1,6.6-14.7,14.7-14.8c8.1,0,14.7,6.6,14.8,14.7
			c0,8.1-6.6,14.7-14.7,14.8l0,0C1722.2,993.5,1715.6,987,1715.5,978.8L1715.5,978.8L1715.5,978.8"/>
		<path class="st3" d="M1694.5,1027.4c0,5.8,4.7,10.6,10.6,10.6c5.8,0,10.6-4.7,10.6-10.6c0-5.8-4.7-10.6-10.6-10.6l0,0l0,0
			C1699.3,1016.8,1694.5,1021.6,1694.5,1027.4L1694.5,1027.4"/>
		<path class="st0" d="M1704.7,70.7c3.6,0,4,0,5.4,0.1c0.8,0,1.7,0.2,2.5,0.5c0.6,0.2,1.1,0.6,1.5,1c0.4,0.4,0.8,0.9,1,1.5
			c0.3,0.8,0.4,1.6,0.5,2.5c0.1,1.4,0.1,1.8,0.1,5.4s0,4-0.1,5.4c0,0.8-0.2,1.7-0.5,2.5c-0.2,0.6-0.6,1.1-1,1.5
			c-0.4,0.4-1,0.8-1.5,1c-0.8,0.3-1.6,0.4-2.5,0.5c-1.4,0.1-1.8,0.1-5.4,0.1s-4,0-5.4-0.1c-0.8,0-1.7-0.2-2.5-0.5
			c-0.6-0.2-1.1-0.6-1.5-1c-0.4-0.4-0.8-1-1-1.5c-0.3-0.8-0.4-1.6-0.5-2.5c-0.1-1.4-0.1-1.8-0.1-5.4s0-4,0.1-5.4
			c0-0.8,0.2-1.7,0.5-2.5c0.5-1.2,1.4-2.1,2.5-2.5c0.8-0.3,1.6-0.5,2.5-0.5C1700.7,70.7,1701.2,70.7,1704.7,70.7 M1704.7,68.3
			c-3.6,0-4.1,0-5.5,0.1c-1.1,0-2.2,0.2-3.2,0.6c-0.9,0.3-1.7,0.9-2.3,1.6c-0.7,0.7-1.2,1.5-1.6,2.4c-0.4,1-0.6,2.1-0.6,3.3
			c-0.1,1.4-0.1,1.9-0.1,5.5s0,4.1,0.1,5.5c0,1.1,0.2,2.2,0.6,3.2c0.7,1.8,2.1,3.2,3.9,3.9c1,0.4,2.1,0.6,3.3,0.6
			c1.4,0.1,1.9,0.1,5.5,0.1s4.1,0,5.5-0.1c1.1,0,2.2-0.2,3.2-0.6c1.8-0.7,3.2-2.1,3.9-3.9c0.4-1,0.6-2.1,0.6-3.2
			c0.1-1.4,0.1-1.9,0.1-5.5s0-4.1-0.1-5.5c0-1.1-0.2-2.2-0.6-3.3c-0.3-0.9-0.9-1.7-1.6-2.4c-0.7-0.7-1.5-1.2-2.4-1.5
			c-1-0.4-2.1-0.6-3.2-0.6C1708.8,68.3,1708.4,68.3,1704.7,68.3"/>
		<path class="st0" d="M1704.7,74.8c-3.8,0-6.9,3.1-6.9,6.9s3.1,6.9,6.9,6.9c3.8,0,6.9-3.1,6.9-6.9l0,0l0,0
			C1711.6,77.9,1708.5,74.8,1704.7,74.8 M1704.7,86.1c-2.5,0-4.5-2-4.5-4.4c0-2.5,2-4.5,4.4-4.5c2.5,0,4.5,2,4.5,4.4c0,0,0,0,0,0
			l0,0C1709.2,84.1,1707.2,86.1,1704.7,86.1"/>
		<path class="st0" d="M1713.5,74.6c0,0.9-0.7,1.6-1.6,1.6c-0.9,0-1.6-0.7-1.6-1.6c0-0.9,0.7-1.6,1.6-1.6l0,0
			C1712.7,72.9,1713.5,73.7,1713.5,74.6"/>
		<path class="st3" d="M430.7,905.1H161.9c-6.5,0-11.7-5.2-11.7-11.7l0,0l0,0v-37c0-6.5,5.2-11.7,11.7-11.7c0,0,0,0,0,0h268.8
			c6.5,0,11.7,5.2,11.7,11.7v37C442.4,899.9,437.2,905.1,430.7,905.1L430.7,905.1L430.7,905.1"/>
	</g>
</g>
<g>
	<defs>
		<rect id="SVGID_5_" x="14.6" y="0.6" width="1920" height="1080"/>
	</defs>
	<clipPath id="SVGID_6_">
		<use xlink:href="#SVGID_5_"  style="overflow:visible;"/>
	</clipPath>
	<g class="st6">
		<path class="st0" d="M1658.8,910.5h-536.3c-87.9,0-159.8-71.9-159.8-159.8V383.4c0-87.9,71.9-159.8,159.8-159.8h536.3
			c87.9,0,159.8,71.9,159.8,159.8v367.3C1818.7,838.6,1746.7,910.6,1658.8,910.5"/>
	</g>
</g>
<rect x="1730.1" y="393" class="st2" width="204.5" height="42.2"/>
<rect x="14.6" y="0.6" class="st7" width="1920" height="1080"/>
</svg>
