<svg version="1.1" id="Layer_1" xmlns="http://www.w3.org/2000/svg" xmlns:xlink="http://www.w3.org/1999/xlink" x="0" y="0" viewBox="0 0 1934.7 1080.6" xml:space="preserve"><style>.st0{fill:#fff}.st2{fill:#00aeb7}.st3{fill:#f2a53a}.st5{fill:#282928}</style><path class="st0" d="M16.6.6h1918V1080H16.6z"/><defs><path id="SVGID_1_" d="M14.6.6h1920v1080H14.6z"/></defs><clipPath id="SVGID_2_"><use xlink:href="#SVGID_1_" overflow="visible"/></clipPath><g clip-path="url(#SVGID_2_)"><path class="st2" d="M1317.9 252.3h-248.4c-.7-5.5-1.1-11.1-1.1-16.6 0-69.2 56.1-125.3 125.3-125.3 69.2 0 125.3 56.1 125.3 125.3 0 5.5-.4 11.1-1.1 16.6"/><path class="st3" d="M1210.4 132.9h101.8v28.5h-101.8z"/></g><defs><path id="SVGID_3_" d="M35.7.6C24.6 3 16.7 12.8 16.6 24.2v1031.5c0 13.4 10.8 24.2 24.2 24.3h1869.5c13.4 0 24.2-10.9 24.2-24.2V24.2c0-11.4-7.9-21.2-19.1-23.7H35.7z"/></defs><clipPath id="SVGID_4_"><use xlink:href="#SVGID_3_" overflow="visible"/></clipPath><g clip-path="url(#SVGID_4_)"><path class="st3" d="M924.2 481.8h481v516.6h-481zM1650.8 191h182.7v516.6h-182.7z"/><path class="st2" d="M1181.4 229.6h481v68.3h-481zM843.6 682.2h264.1v115.7H843.6zM799.2 546.4h88.7v6.1h-88.7zM799.2 559.1h88.7v6.1h-88.7zM799.2 571.8h88.7v6.1h-88.7zM799.2 584.6h88.7v6.1h-88.7zM799.2 597.3h88.7v6.1h-88.7zM799.2 610h88.7v6.1h-88.7zM799.2 622.8h88.7v6.1h-88.7z"/><path class="st3" d="M1542.4 936.1h6.1v88.7h-6.1zM1529.7 936.1h6.1v88.7h-6.1zM1517 936.1h6.1v88.7h-6.1zM1504.2 936.1h6.1v88.7h-6.1zM1491.5 936.1h6.1v88.7h-6.1zM1478.8 936.1h6.1v88.7h-6.1zM1466 936.1h6.1v88.7h-6.1zM1237.3 0h619v18.5h-619z"/><path class="st2" d="M917.7 181.3c-16.4 0-29.7 13.3-29.7 29.7s13.3 29.7 29.7 29.7 29.7-13.3 29.7-29.7-13.3-29.7-29.7-29.7m0 51.8c-12.2 0-22-9.8-22-22s9.8-22 22-22 22 9.8 22 22-9.9 22-22 22M673.3 678.5c-16.4 0-29.7 13.3-29.7 29.7s13.3 29.7 29.7 29.7 29.7-13.3 29.7-29.7-13.3-29.7-29.7-29.7m0 51.7c-12.2 0-22-9.8-22-22s9.8-22 22-22 22 9.8 22 22-9.9 22-22 22"/><path class="st5" d="M575.4 876.5h88.7v6.1h-88.7zM575.4 889.2h88.7v6.1h-88.7zM575.4 901.9h88.7v6.1h-88.7zM575.4 914.7h88.7v6.1h-88.7zM575.4 927.4h88.7v6.1h-88.7zM575.4 940.1h88.7v6.1h-88.7zM575.4 952.9h88.7v6.1h-88.7z"/><path class="st2" d="M1633.5 978.9h243.4V1080h-243.4z"/><path class="st3" d="M1773.2 964.2h27.4V1080h-27.4zM1710.4 978.9c0 11 8.9 19.9 19.9 19.9 11 0 19.9-8.9 19.9-19.9 0-11-8.9-19.9-19.9-19.9-11 0-19.9 8.9-19.9 19.9m5.1-.1c0-8.1 6.6-14.7 14.7-14.8 8.1 0 14.7 6.6 14.8 14.7 0 8.1-6.6 14.7-14.7 14.8-8.1 0-14.7-6.5-14.8-14.7M1694.5 1027.4c0 5.8 4.7 10.6 10.6 10.6 5.8 0 10.6-4.7 10.6-10.6 0-5.8-4.7-10.6-10.6-10.6-5.8 0-10.6 4.8-10.6 10.6"/><path class="st0" d="M1704.7 70.7c3.6 0 4 0 5.4.1.8 0 1.7.2 2.5.5.6.2 1.1.6 1.5 1 .4.4.8.9 1 1.5.3.8.4 1.6.5 2.5.1 1.4.1 1.8.1 5.4s0 4-.1 5.4c0 .8-.2 1.7-.5 2.5-.2.6-.6 1.1-1 1.5-.4.4-1 .8-1.5 1-.8.3-1.6.4-2.5.5-1.4.1-1.8.1-5.4.1s-4 0-5.4-.1c-.8 0-1.7-.2-2.5-.5-.6-.2-1.1-.6-1.5-1-.4-.4-.8-1-1-1.5-.3-.8-.4-1.6-.5-2.5-.1-1.4-.1-1.8-.1-5.4s0-4 .1-5.4c0-.8.2-1.7.5-2.5.5-1.2 1.4-2.1 2.5-2.5.8-.3 1.6-.5 2.5-.5 1.4-.1 1.9-.1 5.4-.1m0-2.4c-3.6 0-4.1 0-5.5.1-1.1 0-2.2.2-3.2.6-.9.3-1.7.9-2.3 1.6-.7.7-1.2 1.5-1.6 2.4-.4 1-.6 2.1-.6 3.3-.1 1.4-.1 1.9-.1 5.5s0 4.1.1 5.5c0 1.1.2 2.2.6 3.2.7 1.8 2.1 3.2 3.9 3.9 1 .4 2.1.6 3.3.6 1.4.1 1.9.1 5.5.1s4.1 0 5.5-.1c1.1 0 2.2-.2 3.2-.6 1.8-.7 3.2-2.1 3.9-3.9.4-1 .6-2.1.6-3.2.1-1.4.1-1.9.1-5.5s0-4.1-.1-5.5c0-1.1-.2-2.2-.6-3.3-.3-.9-.9-1.7-1.6-2.4-.7-.7-1.5-1.2-2.4-1.5-1-.4-2.1-.6-3.2-.6-1.4-.2-1.8-.2-5.5-.2"/><path class="st0" d="M1704.7 74.8c-3.8 0-6.9 3.1-6.9 6.9s3.1 6.9 6.9 6.9c3.8 0 6.9-3.1 6.9-6.9 0-3.8-3.1-6.9-6.9-6.9m0 11.3c-2.5 0-4.5-2-4.5-4.4 0-2.5 2-4.5 4.4-4.5 2.5 0 4.5 2 4.5 4.4.1 2.5-1.9 4.5-4.4 4.5M1713.5 74.6c0 .9-.7 1.6-1.6 1.6-.9 0-1.6-.7-1.6-1.6 0-.9.7-1.6 1.6-1.6.8-.1 1.6.7 1.6 1.6"/><path class="st3" d="M430.7 905.1H161.9c-6.5 0-11.7-5.2-11.7-11.7v-37c0-6.5 5.2-11.7 11.7-11.7h268.8c6.5 0 11.7 5.2 11.7 11.7v37c0 6.5-5.2 11.7-11.7 11.7"/></g><g><defs><path id="SVGID_5_" d="M14.6.6h1920v1080H14.6z"/></defs><clipPath id="SVGID_6_"><use xlink:href="#SVGID_5_" overflow="visible"/></clipPath><g clip-path="url(#SVGID_6_)"><path class="st0" d="M1658.8 910.5h-536.3c-87.9 0-159.8-71.9-159.8-159.8V383.4c0-87.9 71.9-159.8 159.8-159.8h536.3c87.9 0 159.8 71.9 159.8 159.8v367.3c.1 87.9-71.9 159.9-159.8 159.8"/></g></g><path class="st2" d="M1730.1 393h204.5v42.2h-204.5z"/><path fill="none" d="M14.6.6h1920v1080H14.6z"/></svg>