<svg height="512" viewBox="0 0 58 58" width="512" xmlns="http://www.w3.org/2000/svg"><g id="Page-1" fill="none" fill-rule="evenodd"><g id="006---Live-Chat" transform="translate(-1)"><path id="Path" d="m59 2.18.0002449 39.82h-58.0002449v-39.82c-.04521019-1.152631.84774936-2.12595691 2-2.18h54c.453783.00042492.8915648.16770738 1.23.47.4976637.42752465.7797556 1.05398831.77 1.71z" fill="#90bae1"/><path id="Path" d="m58.23.47c-4.97 15.76-18.81 38.28-57.23 34.76v-33.05c-.04521019-1.152631.84774936-2.12595691 2-2.18h54c.453783.00042492.8915648.16770738 1.23.47z" fill="#b0d3f0"/><path id="Path" d="m8 19.77v-1.77c0-5.5228475 4.4771525-10 10-10s10 4.4771525 10 10v1.77z" fill="#547580"/><path id="Path" d="m21.6 30h2.15c3.6705991.0005558 6.8698798 2.4989631 7.76 6.06l1.49 5.94h-30l1.49-5.94c.89012024-3.5610369 4.08940092-6.0594442 7.76-6.06z" fill="#ecf0f1"/><path id="Path" d="m10 43c-.55228475 0-1-.4477153-1-1v-5c0-.5522847.44771525-1 1-1 .5522847 0 1 .4477153 1 1v5c0 .5522847-.4477153 1-1 1z" fill="#d1d4d1"/><path id="Path" d="m26 43c-.5522847 0-1-.4477153-1-1v-5c0-.5522847.4477153-1 1-1s1 .4477153 1 1v5c0 .5522847-.4477153 1-1 1z" fill="#d1d4d1"/><path id="Path" d="m25 19v2c-4 0-5-4-5-4 0 4-9 3-9 3v-1c0-2.5008592 1.3341924-4.8117483 3.5-6.0621779 2.1658075-1.2504296 4.8341925-1.2504296 7 0 2.1658076 1.2504296 3.5 3.5613187 3.5 6.0621779z" fill="#a56a43"/><path id="Path" d="m12.9999998 30 .0000002 2.56c-.0002374.5992835.2682707 1.167092.7316242 1.5471503s1.072716.5323093 1.6603758.4148497l2.608-.522 2.608.522c.5876598.1174596 1.1970223-.0347914 1.6603758-.4148497s.7318616-.9478668.7316242-1.5471503l.0000002-2.56z" fill="#fff"/><path id="Rectangle" d="m17 29h2v13h-2z" fill="#d1d4d1"/><path id="Path" d="m55 10v4c0 3.3137085-2.6862915 6-6 6h-4.63c-.2388157.0000216-.4697389.0855093-.651.241l-5.068 3.52c-.2967441.2544949-.714578.3127367-1.0696065.1490924s-.5821456-.5191651-.5813935-.9100924v-2.081c-.0000304-.4932053-.3627411-.9113242-.851-.981-2.9527326-.4261155-5.1453202-2.9546813-5.149-5.938v-4c0-3.3137085 2.6862915-6 6-6h12c3.3137085 0 6 2.6862915 6 6z" fill="#f0c419"/><path id="Path" d="m50 11h-14c-.5522847 0-1-.4477153-1-1 0-.55228475.4477153-1 1-1h14c.5522847 0 1 .44771525 1 1 0 .5522847-.4477153 1-1 1z" fill="#35495e"/><path id="Path" d="m43 15h-7c-.5522847 0-1-.4477153-1-1s.4477153-1 1-1h7c.5522847 0 1 .4477153 1 1s-.4477153 1-1 1z" fill="#35495e"/><path id="Path" d="m10 19h1v6h-1c-1.65685425 0-3-1.3431458-3-3s1.34314575-3 3-3z" fill="#7f8c8d"/><path id="Path" d="m25 19h1c1.6568542 0 3 1.3431458 3 3s-1.3431458 3-3 3h-1z" fill="#7f8c8d"/><path id="Path" d="m25 21v3c-.0000001 3.8659932-3.1340068 6.9999999-7 6.9999999s-6.9999999-3.1340067-7-6.9999999v-4s9 1 9-3c0 0 1 4 5 4z" fill="#fdd7ad"/><path id="Path" d="m20 28h-2c-.5522847 0-1-.4477153-1-1s.4477153-1 1-1h1.723l4.762-2.857c.3065026-.1918041.6926712-.2032165 1.0099658-.0298476.3172946.173369.5162906.5045139.5204443.8660598.0041536.3615458-.1871822.6971751-.5004101.8777878l-5 3c-.1555125.0935101-.3335385.1429426-.515.143z" fill="#95a5a5"/><path id="Path" d="m59 42v3.82c.0452102 1.152631-.8477494 2.1259569-2 2.18h-54c-1.15225064-.0540431-2.04521019-1.027369-2-2.18v-3.82z" fill="#547580"/><path id="Path" d="m38 48 3 6h-11-11l3-6z" fill="#3f5c6c"/><rect id="Rectangle" fill="#547580" height="4" rx="2" width="34" x="13" y="54"/></g></g></svg>