<svg id="Layer_1" data-name="Layer 1" xmlns="http://www.w3.org/2000/svg" viewBox="0 0 242.98 77.08"><defs><style>.cls-1{fill:#f2a53a;}.cls-2{fill:#00aeb7;}.cls-3{fill:#606161;}.cls-4{fill:none;}</style></defs><title>logo</title><path class="cls-1" d="M182.48,11.06A11.07,11.07,0,1,1,171.42,0a11.07,11.07,0,0,1,11.06,11.06" transform="translate(5.04)"/><path class="cls-1" d="M210.14,11.06A11.07,11.07,0,1,1,199.08,0a11.07,11.07,0,0,1,11.06,11.06" transform="translate(5.04)"/><path class="cls-1" d="M237.8,11.06A11.07,11.07,0,1,1,226.73,0,11.07,11.07,0,0,1,237.8,11.06" transform="translate(5.04)"/><path class="cls-2" d="M182.48,36.78a11.07,11.07,0,1,1-11.06-11.07,11.06,11.06,0,0,1,11.06,11.07" transform="translate(5.04)"/><path class="cls-1" d="M210.14,36.78a11.07,11.07,0,1,1-11.06-11.07,11.06,11.06,0,0,1,11.06,11.07" transform="translate(5.04)"/><path class="cls-2" d="M238,36.93a11.07,11.07,0,1,1-11.07-11.06A11.07,11.07,0,0,1,238,36.93" transform="translate(5.04)"/><path class="cls-2" d="M182.63,62.64a11.07,11.07,0,1,1-11.06-11.06,11.07,11.07,0,0,1,11.06,11.06" transform="translate(5.04)"/><path class="cls-1" d="M210.14,62.49a11.07,11.07,0,1,1-11.06-11.06,11.07,11.07,0,0,1,11.06,11.06" transform="translate(5.04)"/><path class="cls-2" d="M238,62.64a11.07,11.07,0,1,1-11.07-11.06A11.07,11.07,0,0,1,238,62.64" transform="translate(5.04)"/><path class="cls-2" d="M120.61,9.49v6.65A7.43,7.43,0,0,1,116.78,23l-.25.13-.37.17-.3.12-.36.14-.66.2-.28.06-.51.1-.31.05-.55.07-.28,0c-.28,0-.57,0-.86,0-3.29,0-5.86-1.21-7.33-3.32-.15-.21-.28-.43-.41-.65a8,8,0,0,1-.6-1.47,9,9,0,0,1-.35-2.54V5.54h1.49a4,4,0,0,1,3.87,3.16,3.42,3.42,0,0,1,.08.79v6.65a3.8,3.8,0,0,0,.26,1.43,3.13,3.13,0,0,0,3,2c1.8,0,3.09-1.29,3.09-3.43V5.54h1.48a4,4,0,0,1,4,4M72.3,5.65,79.87,24H77.18A4.48,4.48,0,0,1,73,21.07h-7.4l0,0A4.45,4.45,0,0,1,61.38,24H58.87L66.7,5.65ZM67.09,17.09h4.44l-2.18-6ZM30.26,5.65,37.83,24H35.14a4.47,4.47,0,0,1-4.2-2.93H23.53v0A4.45,4.45,0,0,1,19.34,24H16.83L24.66,5.65ZM25.05,17.09h4.44l-2.19-6ZM54,18.56l-3.54-5.45,6.65-7.46H52.6a4,4,0,0,0-3,1.36l-5,5.71V5.65H39.2V24h5.45V19.61l2.06-2.31,3.1,4.87a3.9,3.9,0,0,0,1,1.08,4.28,4.28,0,0,0,.86.48,4,4,0,0,0,1.46.27H57.5Zm76.82.89h-3.14V11.1a5.45,5.45,0,0,0-5.45-5.45V24h13.14a4.55,4.55,0,0,0-4.55-4.55m14.73,0h-3.14V11.1a5.45,5.45,0,0,0-5.45-5.45V24h13.14a4.55,4.55,0,0,0-4.55-4.55m-47-13.8a4,4,0,0,0-.49,0l-.2,0-.26.06A4.06,4.06,0,0,0,97,6h0A3.86,3.86,0,0,0,94.9,8l-3.39,7.78L88.12,8A3.88,3.88,0,0,0,86,6h0a4.06,4.06,0,0,0-.59-.19l-.25-.06-.2,0a4.21,4.21,0,0,0-.5,0H81.24V24h.84A4,4,0,0,0,84,23.53a5.09,5.09,0,0,0,.92-.68,4.58,4.58,0,0,0,.48-.59,3.62,3.62,0,0,0,.2-.33A4,4,0,0,0,86,20.05V13.14l3,7.41a2.65,2.65,0,0,0,4.91,0l3-7.41v6.92a4.06,4.06,0,0,0,.68,2.2,3.85,3.85,0,0,0,.77.84,3.5,3.5,0,0,0,.63.43A4,4,0,0,0,101,24h.82V5.65ZM.61,10H5.92V20.05a4,4,0,0,0,4,3.95H11.4V10h5.34V5.65H.61Z" transform="translate(5.04)"/><path class="cls-1" d="M108,31.45l-.22.23a1.44,1.44,0,0,0-.28.43,1.13,1.13,0,0,0,.21,1.28l.31.29,4.09-4.36-1.72-1.61a2.2,2.2,0,0,0-.34-.28l-.12-.07a1.71,1.71,0,0,0-.23-.13l-.14-.06-.21-.06-.16,0-.2,0h-.16l-.19,0a.76.76,0,0,0-.16,0,1.66,1.66,0,0,0-.31.12l-.19.11-.14.09h0a3,3,0,0,0-.43.38,2,2,0,0,0,0,3.07Zm.93-1-.54-.51a.71.71,0,0,1,0-1.1.7.7,0,0,1,1.09-.09l.53.5Z" transform="translate(5.04)"/><path class="cls-1" d="M109.15,38.13h-5.27v8.28h-3.25V30.91a2.7,2.7,0,0,0-2.7-2.7h-1v22.3a2.1,2.1,0,0,1-2.11,2.34,2.32,2.32,0,0,1-1.26-.36,2.28,2.28,0,0,1-1-2V46a2.77,2.77,0,0,0-.21-1,2.7,2.7,0,0,0-2.49-1.65h-1v7.23a5.48,5.48,0,0,0,.93,3.18,4.71,4.71,0,0,0,.69.79,6.14,6.14,0,0,0,.86.63,6.78,6.78,0,0,0,3.45.84,8.53,8.53,0,0,0,.89-.05l.19,0a7,7,0,0,0,.82-.16h0c.27-.07.52-.16.77-.25l.09,0a5,5,0,0,0,3.07-4.92v-.35H109c4,0,6.59-2.4,6.59-6s-2.57-6-6.47-6M107.45,41h1.63a2.92,2.92,0,0,1,2.9,3.23,3.51,3.51,0,0,1-.69,2.23h-3.84Z" transform="translate(5.04)"/><path class="cls-1" d="M34.13,33.88a.86.86,0,0,0,.1.16,2.09,2.09,0,0,0,1.8.82h.28l.14,0h.08l.12,0h.07l.16-.05.09,0,.08,0,.09-.05.06,0a1.67,1.67,0,0,0,.28-.18,2.28,2.28,0,0,0,1.45.45h.28l.14,0h.08l.12,0h.07l.16-.05.09,0,.08,0,.09-.05.06,0a1.82,1.82,0,0,0,.94-1.7V31.26a1,1,0,0,0-1-1H39.7v2.61a.78.78,0,0,1-1.5.36.88.88,0,0,1-.06-.28V31.26a1,1,0,0,0-1-1h-.38v2.61a.28.28,0,0,0,0,.09.75.75,0,0,1-.76.76.76.76,0,0,1-.74-.49,1,1,0,0,1-.07-.36V31.26a.65.65,0,0,0,0-.2,1,1,0,0,0-1-.78h-.37v2.61a2.08,2.08,0,0,0,.09.63,1.94,1.94,0,0,0,.15.36" transform="translate(5.04)"/><path class="cls-1" d="M82,31V50.16h1a2.7,2.7,0,0,0,2.7-2.7V28.28h-1A2.7,2.7,0,0,0,82,31" transform="translate(5.04)"/><path class="cls-1" d="M77,28.33H76V46.14a2.09,2.09,0,0,1-2.11,2.34,2.18,2.18,0,0,1-2.23-2.34V39.58a2.7,2.7,0,0,0-2.7-2.7h-1v7.57h0v1.95H60.59V36.79H55.11c-4,0-6.73,2.48-6.73,6.25a6.27,6.27,0,0,0,.92,3.37H41.8V36.79H36.32c-4,0-6.73,2.48-6.73,6.25s2.73,6.27,6.86,6.27H38v7.32h1a2.7,2.7,0,0,0,2.7-2.7V50.16H69.61a6.3,6.3,0,0,0,4.25,1.43c3.57,0,5.83-2.13,5.83-5.45V31A2.69,2.69,0,0,0,77,28.33m-38.9,15A2.9,2.9,0,0,0,38,44V46.4h-1.8c-1.7,0-2.84-1.32-2.84-3.32s1.23-3.36,3-3.36h1.7Zm18.79,3H55c-1.7,0-2.84-1.32-2.84-3.32s1.23-3.36,3-3.36h1.69Z" transform="translate(5.04)"/><path class="cls-1" d="M149,37.09a2.7,2.7,0,0,0-2.7,2.7v5a1.66,1.66,0,0,1-1.68,1.59h-6.81a6.88,6.88,0,0,0,.36-2.24h0v-.05h0v-1a2.66,2.66,0,0,0-.79-1.9,2.69,2.69,0,0,0-1.91-.8H131a2.76,2.76,0,0,1-1-.17,2.12,2.12,0,0,1-1.36-2.06,2.09,2.09,0,0,1,2.34-2.1h7.23v-1a2.7,2.7,0,0,0-2.7-2.7H131A5,5,0,0,0,126,35.42l0,.1a4.51,4.51,0,0,0-.25.76h0c-.06.26-.11.54-.15.83a1.1,1.1,0,0,0,0,.18,8.48,8.48,0,0,0-.06.89,6.73,6.73,0,0,0,.85,3.45,4.53,4.53,0,0,0,.63.86,4.71,4.71,0,0,0,.79.69,5.46,5.46,0,0,0,3.18.93h3.3a2,2,0,0,1-2.15,2.25h-5.06a3,3,0,0,0-.43,0H121V28.28h-1a2.7,2.7,0,0,0-2.7,2.7V50.16h26l.38,0c.16,0,.31,0,.47,0,3.59,0,5.93-2.13,5.93-5.45V37.09Z" transform="translate(5.04)"/><path class="cls-1" d="M16.14,43.89a6.56,6.56,0,0,0,.49,2.56H6.06a2.09,2.09,0,0,1-2.34-2.11,2.19,2.19,0,0,1,.36-1.25,2.24,2.24,0,0,1,2-1h4.53a2.85,2.85,0,0,0,1.05-.21,3,3,0,0,0,.86-.58,3.19,3.19,0,0,0,.33-.4,2.68,2.68,0,0,0,.45-1.51v-1H6.06a5.42,5.42,0,0,0-3.19.93,5.07,5.07,0,0,0-.78.68,4.87,4.87,0,0,0-.63.86,6.78,6.78,0,0,0-.85,3.45,8.53,8.53,0,0,0,.05.89,1.23,1.23,0,0,1,0,.19,7,7,0,0,0,.16.82h0A6.33,6.33,0,0,0,1.1,47l0,.1a5,5,0,0,0,4.92,3.06H25.65a2.7,2.7,0,0,0,2.7-2.7V37.64H22.87c-4.05,0-6.73,2.48-6.73,6.25m8.5-3.32v5.88H20.82a3.56,3.56,0,0,1-.9-2.53,3,3,0,0,1,3-3.35Z" transform="translate(5.04)"/><path class="cls-1" d="M146,35.31a1.79,1.79,0,0,0,2.11-2.1,1.81,1.81,0,0,0-1.41-1.41,1.79,1.79,0,0,0-2.1,2.11,1.77,1.77,0,0,0,1.4,1.4" transform="translate(5.04)"/><path class="cls-1" d="M142.06,35.31a1.79,1.79,0,1,0-1.41-1.4,1.78,1.78,0,0,0,1.41,1.4" transform="translate(5.04)"/><path class="cls-1" d="M69.06,35.31a1.79,1.79,0,1,0-1.41-1.4,1.78,1.78,0,0,0,1.41,1.4" transform="translate(5.04)"/><path class="cls-1" d="M65.12,35.31a1.79,1.79,0,0,0,2.11-2.1,1.81,1.81,0,0,0-1.41-1.41,1.79,1.79,0,0,0-2.1,2.11,1.77,1.77,0,0,0,1.4,1.4" transform="translate(5.04)"/><path class="cls-1" d="M25.3,35.31a1.79,1.79,0,1,0-1.41-1.4,1.78,1.78,0,0,0,1.41,1.4" transform="translate(5.04)"/><path class="cls-1" d="M21.36,35.31a1.79,1.79,0,0,0,2.11-2.1,1.81,1.81,0,0,0-1.41-1.41A1.79,1.79,0,0,0,20,33.91a1.77,1.77,0,0,0,1.4,1.4" transform="translate(5.04)"/><path class="cls-1" d="M54.74,35.31a1.79,1.79,0,1,0-1.4-1.4,1.77,1.77,0,0,0,1.4,1.4" transform="translate(5.04)"/><path class="cls-3" d="M7.53,64.1c-.66,1.35-1,2.07-1,2.14s.21.57.64,1.66a7.47,7.47,0,0,1,.65,2.31c0,.53-.53,1-1.58,1.37A6.83,6.83,0,0,1,4,72c-2,0-2.94-.85-2.94-2.56a4.16,4.16,0,0,1,.35-1.66A7.11,7.11,0,0,0,1.77,67V66.7a.22.22,0,0,1-.12-.06c-.37.14-.75.86-1.14,2.17A10.31,10.31,0,0,0,0,71.46Q0,74.6,3.33,74.6a6.76,6.76,0,0,0,2.79-.74c1.27-.59,2-1.3,2.17-2.14a2.62,2.62,0,0,1,.17-.49l.24-1a6.45,6.45,0,0,0,.24-1.54,8.71,8.71,0,0,0-.41-2.41,7.38,7.38,0,0,0-1-2.21" transform="translate(5.04)"/><path class="cls-3" d="M4.56,63.09q.54-.53.54-.75c0-.08-.21-.3-.63-.67a2.45,2.45,0,0,0-.75-.56c-.1,0-.29.21-.58.64a2.91,2.91,0,0,0-.49.9c.68.65,1.1,1,1.26,1s.28-.18.65-.53" transform="translate(5.04)"/><path class="cls-3" d="M49.24,69.07H47.61l-.9.1-.9.1a1,1,0,0,1-.44-.06A5.33,5.33,0,0,1,43.48,67a1.92,1.92,0,0,1,1-.56,4.68,4.68,0,0,1,1.14-.11,5.29,5.29,0,0,1,1,.08,3.25,3.25,0,0,1,2,1.17v-.48a4.12,4.12,0,0,0-.7-1.57,4,4,0,0,0-1-1.06,4.36,4.36,0,0,0-.46-.27,1.58,1.58,0,0,0-.68-.16,1.2,1.2,0,0,0-.54.15A7.24,7.24,0,0,0,42.58,67a3,3,0,0,0-.46,1c0,.57,0,1,0,1.3h-.83v-.06H23v.06h-.3l-1-9.5a5.34,5.34,0,0,0-1.48,1.48,1.19,1.19,0,0,0-.08.46,2.73,2.73,0,0,0,0,.44c0,.18,0,.28,0,.3v1.94a9.37,9.37,0,0,1-.66,2,2.89,2.89,0,0,1-.41.69,6.48,6.48,0,0,1-.81.94A8.93,8.93,0,0,0,14.73,62,16.59,16.59,0,0,0,13,60.79a2.18,2.18,0,0,0-.66-.28h-.24c-.08.27-.16.48-.22.63a7.46,7.46,0,0,0-.24,2v.58a.86.86,0,0,0,.19.45c1.35.78,2.32,1.31,2.92,1.6A1.33,1.33,0,0,1,15,65a5.52,5.52,0,0,1,2.52,3.77,14.73,14.73,0,0,1-3.69,2c-2,.74-3.14,1.2-3.53,1.39l-.07.23,2.75.09,2.72-.46a5.69,5.69,0,0,0,2.8-1.34,6.25,6.25,0,0,0,1.24-2c.22-.62.46-1.25.7-1.88a.12.12,0,0,0,.1.06,5.91,5.91,0,0,1,.56,2.21c0,.06,0,.87.07,2.44H48.48l1.17-2.45h-.41Z" transform="translate(5.04)"/><path class="cls-3" d="M52.74,75a.27.27,0,0,1-.25-.29.21.21,0,0,1,0-.11,1.09,1.09,0,0,1,.78-.46.74.74,0,0,1,.32.1c.11.07.18.13.2.19l.06.11a1.56,1.56,0,0,0,.34-.65,1,1,0,0,1-.07-.2.62.62,0,0,0-.19-.23q-.39-.09-.3-.09a1.3,1.3,0,0,0-1,.52,2.28,2.28,0,0,0-.7,1.71,3.87,3.87,0,0,0,1,.37c-.5.47-.75.79-.75.94v.2a3.75,3.75,0,0,1,2.36-1.14,6.25,6.25,0,0,0,.36-.83,6.6,6.6,0,0,1-1,.06,4.31,4.31,0,0,1-1.33-.2" transform="translate(5.04)"/><path class="cls-3" d="M59.93,60.4a4.07,4.07,0,0,1-.66-.66,3.17,3.17,0,0,1-.17-.83l-1.45,2.66a2.61,2.61,0,0,1,.48,1.54,5.79,5.79,0,0,1-.51,2.62,13.72,13.72,0,0,0-1.85-2.82,12.16,12.16,0,0,0-2.3-2.31,1.65,1.65,0,0,1,0,.62H52a11.6,11.6,0,0,0-.24,1.4c0,.61.11,1,.34,1.14,1.47,1,2.24,1.51,2.31,1.57.13-.3.22-.53.29-.68a7,7,0,0,1,1.21,1.23,5,5,0,0,1,.9,1.38c-1.16,1.24-1.94,1.86-2.33,1.86a.69.69,0,0,1-.61-.34c-.14-.22-.26-.4-.34-.54a5.62,5.62,0,0,0-.27,1.84c0,.81.12,1.29.37,1.44h5.17a12.84,12.84,0,0,0,.15-1.89,5.22,5.22,0,0,0-.51-2.29,2,2,0,0,1-.17-.4,4.33,4.33,0,0,1,.34-.71,7.17,7.17,0,0,0,.44-1,14.36,14.36,0,0,0,.43-2.12.63.63,0,0,0,.42.2.3.3,0,0,0,.14,0,10.84,10.84,0,0,0,1.07-2c0-.13-.38-.44-1.14-.91M56,69.24A7.24,7.24,0,0,0,57.18,68a14,14,0,0,1,.56,1.29,6.9,6.9,0,0,1-1.7,0" transform="translate(5.04)"/><path class="cls-3" d="M64.57,59.88c-.17.27-.44.74-.8,1.4a6.09,6.09,0,0,0-.61,1.4l.9,8.84a8.39,8.39,0,0,0,1-4.26Z" transform="translate(5.04)"/><path class="cls-3" d="M72.08,67.16A6,6,0,0,0,71.57,66c-.35-.59-.69-.89-1-.89-.5,0-1.06.55-1.68,1.64a6.52,6.52,0,0,0-.85,2v.69a3.81,3.81,0,0,0,.22,1.49,1.2,1.2,0,0,0,1.17.6,1.73,1.73,0,0,0,1.2-.41,3.38,3.38,0,0,0,.79-1.56h0a2.53,2.53,0,0,1,.12.77c0,1-.68,2.08-2,3.28s-2.18,1.65-2.84,1.65c0,0-.37-.06-1-.19s-.89-.2-.92-.2a.3.3,0,0,0-.34.34,5.77,5.77,0,0,0,1.88.81,8.71,8.71,0,0,0,2.32.5c1.1,0,2-.89,2.79-2.68a11.67,11.67,0,0,0,1-4.56,6.74,6.74,0,0,0-.17-1.4c-.08-.32-.15-.56-.2-.71m-2.14,2a2.07,2.07,0,0,1-.63-.14c-.37-.14-.56-.3-.56-.5a.83.83,0,0,1,.49-.7,1.52,1.52,0,0,1,.63-.23.88.88,0,0,1,.63.29,1.4,1.4,0,0,1,.34,1,1.92,1.92,0,0,1-.9.29" transform="translate(5.04)"/><path class="cls-3" d="M79.18,61.31a5.54,5.54,0,0,0,1.41.88s.2-.17.46-.51.6-.74.63-.8l-1.48-1a6.37,6.37,0,0,0-.87.92c-.17,0-.59-.31-1.27-.92-.45.63-.78,1.09-1,1.37a4.79,4.79,0,0,0,1.34.89c.08,0,.34-.28.78-.83" transform="translate(5.04)"/><path class="cls-3" d="M101.66,74.26a2.43,2.43,0,0,1-.44.48c-.19,0-.57-.25-1.12-.74-.16-.15-.25-.22-.27-.2-.61.84-1,1.34-1.06,1.51a13.38,13.38,0,0,0,1.53,1.06,11.47,11.47,0,0,0,.77-1,12.51,12.51,0,0,0,1.49,1c.09,0,.35-.32.75-.94a3.73,3.73,0,0,0,.32-.6c-1-.71-1.49-1.06-1.51-1.06s-.2.16-.46.49" transform="translate(5.04)"/><path class="cls-3" d="M103.16,64.59l-1,2a11.27,11.27,0,0,1,.9,1.67,5.46,5.46,0,0,1,.31.87c0,.1,0,.15,0,.15H99.11v-.06H83.85v.06h-.1c-.44,0-.68-.13-.73-.38-.47-3-.8-5.2-1-6.7-.7,1.41-1,2.08-1,2a1.36,1.36,0,0,0,.09.33l.11.35c-.47.38-1,.74-1.51,1.09-.79.55-1.25,1-1.36,1.42a23,23,0,0,1-.73,2.45v.32l2.94.68c.28,0,.52-.32.74-.87A1.86,1.86,0,0,1,81.9,69c.16.79.28,1.37.34,1.76a1.22,1.22,0,0,0,.39.57.33.33,0,0,0,.24.15h21.24c.26-2.08.39-3.24.39-3.47a5.49,5.49,0,0,0-.17-1.14,5.07,5.07,0,0,0-1.17-2.32M81.83,68.35h-1.1a7,7,0,0,1-1.48-.43l1-.54a2.11,2.11,0,0,0,.87-1.19.55.55,0,0,1,.37-.4,16.12,16.12,0,0,1,.34,2.13Z" transform="translate(5.04)"/><path class="cls-3" d="M126.91,69.07h-1.63l-.9.1-.9.1a1,1,0,0,1-.44-.06A5.4,5.4,0,0,1,121.15,67a2,2,0,0,1,1-.56,4.68,4.68,0,0,1,1.14-.11,5.22,5.22,0,0,1,1,.08,3.22,3.22,0,0,1,2,1.17v-.48a4.12,4.12,0,0,0-.7-1.57,4,4,0,0,0-1-1.06,4.36,4.36,0,0,0-.46-.27,1.58,1.58,0,0,0-.68-.16,1.23,1.23,0,0,0-.54.15A7.24,7.24,0,0,0,120.25,67a3,3,0,0,0-.46,1c0,.57-.05,1-.05,1.3h-.83v-.06h-9.33v0a.89.89,0,0,1-.31-.11,2.67,2.67,0,0,0-.34-.16c-.13,0-.21-.11-.22-.2q-.27-2.16-.71-7.75c-.06-.89-.12-1.57-.17-2a17.51,17.51,0,0,0-1.12,1.46,1.32,1.32,0,0,0-.26.48l.85,10.58h18.86l1.16-2.45h-.41Z" transform="translate(5.04)"/><path class="cls-3" d="M148.61,62.89a3,3,0,0,0,.44-.74c-.45-.31-.9-.63-1.34-1a6.44,6.44,0,0,1-1-.86,2.07,2.07,0,0,1-.17-.92,20.91,20.91,0,0,0-1.36,2.76l.71.66c.32,1.69.54,3,.65,3.83a14.49,14.49,0,0,1,.22,1.93,4.19,4.19,0,0,1-.07.69h-3.19q-.6,0-.63-.66-.33-4.59-.53-6.86c-.07-.77-.13-1.41-.2-1.92l-1.48,2.41.88,7h-2.87v-.06h-1.36v0h-.51a.74.74,0,0,1-.81-.6q-.76-3.6-1.19-5.56l-1,2.29c.13.54.26,1.06.39,1.58a12.09,12.09,0,0,1,.39,2,.67.67,0,0,1-.1.29h-4.11c-.15,0-.25-.11-.33-.35a5.06,5.06,0,0,1,0-1.53c-.05-.08-.09-.13-.12-.14a3.89,3.89,0,0,0-.54,1.52A14.37,14.37,0,0,0,129.1,71c.08.35.19.52.34.52h4.42a3.36,3.36,0,0,0,.44-.93c.14-.39.3-.6.46-.64.24.7.42,1.22.53,1.57h5.57c.39-.58.66-1,.83-1.28a4.05,4.05,0,0,1,.14.65,1,1,0,0,0,.24.63h5.16a.38.38,0,0,0,.18-.06.32.32,0,0,1,.16,0l.46-2.87-.41-4a.54.54,0,0,1,0-.25c.59-.9.9-1.38,1-1.44" transform="translate(5.04)"/><rect class="cls-4" width="242.98" height="77.08"/></svg>