<svg id="Layer_1" data-name="Layer 1" xmlns="http://www.w3.org/2000/svg" viewBox="0 0 242.98 77.08"><defs><style>.cls-1{fill:#f2a53a}.cls-2{fill:#00aeb7}.cls-3{fill:#606161}</style></defs><path class="cls-1" d="M182.48 11.06A11.07 11.07 0 11171.42 0a11.07 11.07 0 0111.06 11.06M210.14 11.06A11.07 11.07 0 11199.08 0a11.07 11.07 0 0111.06 11.06M237.8 11.06A11.07 11.07 0 11226.73 0a11.07 11.07 0 0111.07 11.06" transform="translate(5.04)"/><path class="cls-2" d="M182.48 36.78a11.07 11.07 0 11-11.06-11.07 11.06 11.06 0 0111.06 11.07" transform="translate(5.04)"/><path class="cls-1" d="M210.14 36.78a11.07 11.07 0 11-11.06-11.07 11.06 11.06 0 0111.06 11.07" transform="translate(5.04)"/><path class="cls-2" d="M238 36.93a11.07 11.07 0 11-11.07-11.06A11.07 11.07 0 01238 36.93M182.63 62.64a11.07 11.07 0 11-11.06-11.06 11.07 11.07 0 0111.06 11.06" transform="translate(5.04)"/><path class="cls-1" d="M210.14 62.49a11.07 11.07 0 11-11.06-11.06 11.07 11.07 0 0111.06 11.06" transform="translate(5.04)"/><path class="cls-2" d="M238 62.64a11.07 11.07 0 11-11.07-11.06A11.07 11.07 0 01238 62.64M120.61 9.49v6.65a7.43 7.43 0 01-3.83 6.86l-.25.13-.37.17-.3.12-.36.14-.66.2-.28.06-.51.1-.31.05-.55.07H112.05c-3.29 0-5.86-1.21-7.33-3.32-.15-.21-.28-.43-.41-.65a8 8 0 01-.6-1.47 9 9 0 01-.35-2.54V5.54h1.49a4 4 0 013.87 3.16 3.42 3.42 0 01.08.79v6.65a3.8 3.8 0 00.26 1.43 3.13 3.13 0 003 2c1.8 0 3.09-1.29 3.09-3.43V5.54h1.48a4 4 0 014 4M72.3 5.65L79.87 24h-2.69A4.48 4.48 0 0173 21.07h-7.4A4.45 4.45 0 0161.38 24h-2.51L66.7 5.65zm-5.21 11.44h4.44l-2.18-6zM30.26 5.65L37.83 24h-2.69a4.47 4.47 0 01-4.2-2.93h-7.41A4.45 4.45 0 0119.34 24h-2.51l7.83-18.35zm-5.21 11.44h4.44l-2.19-6zM54 18.56l-3.54-5.45 6.65-7.46H52.6a4 4 0 00-3 1.36l-5 5.71V5.65h-5.4V24h5.45v-4.39l2.06-2.31 3.1 4.87a3.9 3.9 0 001 1.08 4.28 4.28 0 00.86.48 4 4 0 001.46.27h4.37zm76.82.89h-3.14V11.1a5.45 5.45 0 00-5.45-5.45V24h13.14a4.55 4.55 0 00-4.55-4.55m14.73 0h-3.14V11.1a5.45 5.45 0 00-5.45-5.45V24h13.14a4.55 4.55 0 00-4.55-4.55m-47-13.8a4 4 0 00-.49 0h-.2l-.26.06A4.06 4.06 0 0097 6a3.86 3.86 0 00-2.1 2l-3.39 7.78L88.12 8A3.88 3.88 0 0086 6a4.06 4.06 0 00-.59-.19l-.25-.06h-.2a4.21 4.21 0 00-.5 0h-3.22V24h.84a4 4 0 001.92-.47 5.09 5.09 0 00.92-.68 4.58 4.58 0 00.48-.59 3.62 3.62 0 00.2-.33 4 4 0 00.4-1.88v-6.91l3 7.41a2.65 2.65 0 004.91 0l3-7.41v6.92a4.06 4.06 0 00.68 2.2 3.85 3.85 0 00.77.84 3.5 3.5 0 00.63.43A4 4 0 00101 24h.82V5.65zM.61 10h5.31v10.05a4 4 0 004 3.95h1.48V10h5.34V5.65H.61z" transform="translate(5.04)"/><path class="cls-1" d="M108 31.45l-.22.23a1.44 1.44 0 00-.28.43 1.13 1.13 0 00.21 1.28l.31.29 4.09-4.36-1.72-1.61a2.2 2.2 0 00-.34-.28l-.12-.07a1.71 1.71 0 00-.23-.13l-.14-.06-.21-.06h-.71a.76.76 0 00-.16 0 1.66 1.66 0 00-.31.12l-.19.11-.14.09a3 3 0 00-.43.38 2 2 0 000 3.07zm.93-1l-.54-.51a.71.71 0 010-1.1.7.7 0 011.09-.09l.53.5zM109.15 38.13h-5.27v8.28h-3.25v-15.5a2.7 2.7 0 00-2.7-2.7h-1v22.3a2.1 2.1 0 01-2.11 2.34 2.32 2.32 0 01-1.26-.36 2.28 2.28 0 01-1-2V46a2.77 2.77 0 00-.21-1 2.7 2.7 0 00-2.49-1.65h-1v7.23a5.48 5.48 0 00.93 3.18 4.71 4.71 0 00.69.79 6.14 6.14 0 00.86.63 6.78 6.78 0 003.45.84 8.53 8.53 0 00.89-.05h.19a7 7 0 00.82-.16c.27-.07.52-.16.77-.25h.09a5 5 0 003.07-4.92v-.35H109c4 0 6.59-2.4 6.59-6s-2.57-6-6.47-6M107.45 41h1.63a2.92 2.92 0 012.9 3.23 3.51 3.51 0 01-.69 2.23h-3.84zM34.13 33.88a.86.86 0 00.1.16 2.09 2.09 0 001.8.82h.69l.16-.05H37.05l.09-.05h.06a1.67 1.67 0 00.28-.18 2.28 2.28 0 001.45.45h.69l.16-.05H39.95l.09-.05h.06a1.82 1.82 0 00.94-1.7v-1.97a1 1 0 00-1-1h-.34v2.61a.78.78 0 01-1.5.36.88.88 0 01-.06-.28v-1.69a1 1 0 00-1-1h-.38v2.61a.28.28 0 000 .09.75.75 0 01-.76.76.76.76 0 01-.74-.49 1 1 0 01-.07-.36v-1.61a.65.65 0 000-.2 1 1 0 00-1-.78h-.37v2.61a2.08 2.08 0 00.09.63 1.94 1.94 0 00.15.36M82 31v19.16h1a2.7 2.7 0 002.7-2.7V28.28h-1A2.7 2.7 0 0082 31M77 28.33h-1v17.81a2.09 2.09 0 01-2.11 2.34 2.18 2.18 0 01-2.23-2.34v-6.56a2.7 2.7 0 00-2.7-2.7h-1v9.52h-7.37v-9.61h-5.48c-4 0-6.73 2.48-6.73 6.25a6.27 6.27 0 00.92 3.37h-7.5v-9.62h-5.48c-4 0-6.73 2.48-6.73 6.25s2.73 6.27 6.86 6.27H38v7.32h1a2.7 2.7 0 002.7-2.7v-3.77h27.91a6.3 6.3 0 004.25 1.43c3.57 0 5.83-2.13 5.83-5.45V31A2.69 2.69 0 0077 28.33m-38.9 15a2.9 2.9 0 00-.1.67v2.4h-1.8c-1.7 0-2.84-1.32-2.84-3.32s1.23-3.36 3-3.36h1.7zm18.79 3H55c-1.7 0-2.84-1.32-2.84-3.32s1.23-3.36 3-3.36h1.69zM149 37.09a2.7 2.7 0 00-2.7 2.7v5a1.66 1.66 0 01-1.68 1.59h-6.81a6.88 6.88 0 00.36-2.24v-1.05a2.66 2.66 0 00-.79-1.9 2.69 2.69 0 00-1.91-.8H131a2.76 2.76 0 01-1-.17 2.12 2.12 0 01-1.36-2.06 2.09 2.09 0 012.34-2.1h7.23v-1a2.7 2.7 0 00-2.7-2.7H131a5 5 0 00-5 3.06v.1a4.51 4.51 0 00-.25.76c-.06.26-.11.54-.15.83a1.1 1.1 0 000 .18 8.48 8.48 0 00-.06.89 6.73 6.73 0 00.85 3.45 4.53 4.53 0 00.63.86 4.71 4.71 0 00.79.69 5.46 5.46 0 003.18.93h3.3a2 2 0 01-2.15 2.25h-5.06a3 3 0 00-.43 0H121V28.28h-1a2.7 2.7 0 00-2.7 2.7v19.18H144.15c3.59 0 5.93-2.13 5.93-5.45v-7.62zM16.14 43.89a6.56 6.56 0 00.49 2.56H6.06a2.09 2.09 0 01-2.34-2.11 2.19 2.19 0 01.36-1.25 2.24 2.24 0 012-1h4.53a2.85 2.85 0 001.05-.21 3 3 0 00.86-.58 3.19 3.19 0 00.33-.4 2.68 2.68 0 00.45-1.51v-1H6.06a5.42 5.42 0 00-3.19.93 5.07 5.07 0 00-.78.68 4.87 4.87 0 00-.63.86 6.78 6.78 0 00-.85 3.45 8.53 8.53 0 00.05.89 1.23 1.23 0 010 .19 7 7 0 00.16.82 6.33 6.33 0 00.28.79v.1a5 5 0 004.92 3.06h19.63a2.7 2.7 0 002.7-2.7v-9.82h-5.48c-4.05 0-6.73 2.48-6.73 6.25m8.5-3.32v5.88h-3.82a3.56 3.56 0 01-.9-2.53 3 3 0 013-3.35zM146 35.31a1.79 1.79 0 002.11-2.1 1.81 1.81 0 00-1.41-1.41 1.79 1.79 0 00-2.1 2.11 1.77 1.77 0 001.4 1.4" transform="translate(5.04)"/><path class="cls-1" d="M142.06 35.31a1.79 1.79 0 10-1.41-1.4 1.78 1.78 0 001.41 1.4M69.06 35.31a1.79 1.79 0 10-1.41-1.4 1.78 1.78 0 001.41 1.4M65.12 35.31a1.79 1.79 0 002.11-2.1 1.81 1.81 0 00-1.41-1.41 1.79 1.79 0 00-2.1 2.11 1.77 1.77 0 001.4 1.4M25.3 35.31a1.79 1.79 0 10-1.41-1.4 1.78 1.78 0 001.41 1.4M21.36 35.31a1.79 1.79 0 002.11-2.1 1.81 1.81 0 00-1.41-1.41A1.79 1.79 0 0020 33.91a1.77 1.77 0 001.4 1.4M54.74 35.31a1.79 1.79 0 10-1.4-1.4 1.77 1.77 0 001.4 1.4" transform="translate(5.04)"/><path class="cls-3" d="M7.53 64.1c-.66 1.35-1 2.07-1 2.14s.21.57.64 1.66a7.47 7.47 0 01.65 2.31c0 .53-.53 1-1.58 1.37A6.83 6.83 0 014 72c-2 0-2.94-.85-2.94-2.56a4.16 4.16 0 01.35-1.66 7.11 7.11 0 00.36-.78v-.3a.22.22 0 01-.12-.06c-.37.14-.75.86-1.14 2.17A10.31 10.31 0 000 71.46q0 3.14 3.33 3.14a6.76 6.76 0 002.79-.74c1.27-.59 2-1.3 2.17-2.14a2.62 2.62 0 01.17-.49l.24-1a6.45 6.45 0 00.24-1.54 8.71 8.71 0 00-.41-2.41 7.38 7.38 0 00-1-2.21M4.56 63.09q.54-.53.54-.75c0-.08-.21-.3-.63-.67a2.45 2.45 0 00-.75-.56c-.1 0-.29.21-.58.64a2.91 2.91 0 00-.49.9c.68.65 1.1 1 1.26 1s.28-.18.65-.53M49.24 69.07h-1.63l-.9.1-.9.1a1 1 0 01-.44-.06A5.33 5.33 0 0143.48 67a1.92 1.92 0 011-.56 4.68 4.68 0 011.14-.11 5.29 5.29 0 011 .08 3.25 3.25 0 012 1.17v-.48a4.12 4.12 0 00-.7-1.57 4 4 0 00-1-1.06 4.36 4.36 0 00-.46-.27 1.58 1.58 0 00-.68-.16 1.2 1.2 0 00-.54.15A7.24 7.24 0 0042.58 67a3 3 0 00-.46 1v1.3h-.83v-.06H23v.06h-.3l-1-9.5a5.34 5.34 0 00-1.48 1.48 1.19 1.19 0 00-.08.46 2.73 2.73 0 000 .44V64.42a9.37 9.37 0 01-.66 2 2.89 2.89 0 01-.41.69 6.48 6.48 0 01-.81.94A8.93 8.93 0 0014.73 62 16.59 16.59 0 0013 60.79a2.18 2.18 0 00-.66-.28h-.24c-.08.27-.16.48-.22.63a7.46 7.46 0 00-.24 2v.58a.86.86 0 00.19.45c1.35.78 2.32 1.31 2.92 1.6A1.33 1.33 0 0115 65a5.52 5.52 0 012.52 3.77 14.73 14.73 0 01-3.69 2c-2 .74-3.14 1.2-3.53 1.39l-.07.23 2.75.09 2.72-.46a5.69 5.69 0 002.8-1.34 6.25 6.25 0 001.24-2c.22-.62.46-1.25.7-1.88a.12.12 0 00.1.06 5.91 5.91 0 01.56 2.21c0 .06 0 .87.07 2.44h27.31l1.17-2.45h-.41zM52.74 75a.27.27 0 01-.25-.29.21.21 0 010-.11 1.09 1.09 0 01.78-.46.74.74 0 01.32.1c.11.07.18.13.2.19l.06.11a1.56 1.56 0 00.34-.65 1 1 0 01-.07-.2.62.62 0 00-.19-.23q-.39-.09-.3-.09a1.3 1.3 0 00-1 .52 2.28 2.28 0 00-.7 1.71 3.87 3.87 0 001 .37c-.5.47-.75.79-.75.94v.2a3.75 3.75 0 012.36-1.14 6.25 6.25 0 00.36-.83 6.6 6.6 0 01-1 .06 4.31 4.31 0 01-1.33-.2M59.93 60.4a4.07 4.07 0 01-.66-.66 3.17 3.17 0 01-.17-.83l-1.45 2.66a2.61 2.61 0 01.48 1.54 5.79 5.79 0 01-.51 2.62 13.72 13.72 0 00-1.85-2.82 12.16 12.16 0 00-2.3-2.31 1.65 1.65 0 010 .62H52a11.6 11.6 0 00-.24 1.4c0 .61.11 1 .34 1.14 1.47 1 2.24 1.51 2.31 1.57.13-.3.22-.53.29-.68a7 7 0 011.21 1.23 5 5 0 01.9 1.38c-1.16 1.24-1.94 1.86-2.33 1.86a.69.69 0 01-.61-.34c-.14-.22-.26-.4-.34-.54a5.62 5.62 0 00-.27 1.84c0 .81.12 1.29.37 1.44h5.17a12.84 12.84 0 00.15-1.89 5.22 5.22 0 00-.51-2.29 2 2 0 01-.17-.4 4.33 4.33 0 01.34-.71 7.17 7.17 0 00.44-1 14.36 14.36 0 00.43-2.12.63.63 0 00.42.2.3.3 0 00.14 0 10.84 10.84 0 001.07-2c0-.13-.38-.44-1.14-.91M56 69.24A7.24 7.24 0 0057.18 68a14 14 0 01.56 1.29 6.9 6.9 0 01-1.7 0M64.57 59.88c-.17.27-.44.74-.8 1.4a6.09 6.09 0 00-.61 1.4l.9 8.84a8.39 8.39 0 001-4.26zM72.08 67.16a6 6 0 00-.51-1.16c-.35-.59-.69-.89-1-.89-.5 0-1.06.55-1.68 1.64a6.52 6.52 0 00-.85 2v.69a3.81 3.81 0 00.22 1.49 1.2 1.2 0 001.17.6 1.73 1.73 0 001.2-.41 3.38 3.38 0 00.79-1.56 2.53 2.53 0 01.12.77c0 1-.68 2.08-2 3.28s-2.18 1.65-2.84 1.65c0 0-.37-.06-1-.19s-.89-.2-.92-.2a.3.3 0 00-.34.34 5.77 5.77 0 001.88.81 8.71 8.71 0 002.32.5c1.1 0 2-.89 2.79-2.68a11.67 11.67 0 001-4.56 6.74 6.74 0 00-.17-1.4c-.08-.32-.15-.56-.2-.71m-2.14 2a2.07 2.07 0 01-.63-.14c-.37-.14-.56-.3-.56-.5a.83.83 0 01.49-.7 1.52 1.52 0 01.63-.23.88.88 0 01.63.29 1.4 1.4 0 01.34 1 1.92 1.92 0 01-.9.29M79.18 61.31a5.54 5.54 0 001.41.88s.2-.17.46-.51.6-.74.63-.8l-1.48-1a6.37 6.37 0 00-.87.92c-.17 0-.59-.31-1.27-.92-.45.63-.78 1.09-1 1.37a4.79 4.79 0 001.34.89c.08 0 .34-.28.78-.83M101.66 74.26a2.43 2.43 0 01-.44.48c-.19 0-.57-.25-1.12-.74-.16-.15-.25-.22-.27-.2-.61.84-1 1.34-1.06 1.51a13.38 13.38 0 001.53 1.06 11.47 11.47 0 00.77-1 12.51 12.51 0 001.49 1c.09 0 .35-.32.75-.94a3.73 3.73 0 00.32-.6c-1-.71-1.49-1.06-1.51-1.06s-.2.16-.46.49M103.16 64.59l-1 2a11.27 11.27 0 01.9 1.67 5.46 5.46 0 01.31.87v.15h-4.26v-.06H83.85v.06h-.1c-.44 0-.68-.13-.73-.38-.47-3-.8-5.2-1-6.7-.7 1.41-1 2.08-1 2a1.36 1.36 0 00.09.33l.11.35c-.47.38-1 .74-1.51 1.09-.79.55-1.25 1-1.36 1.42a23 23 0 01-.73 2.45v.32l2.94.68c.28 0 .52-.32.74-.87a1.86 1.86 0 01.6-.97c.16.79.28 1.37.34 1.76a1.22 1.22 0 00.39.57.33.33 0 00.24.15h21.24c.26-2.08.39-3.24.39-3.47a5.49 5.49 0 00-.17-1.14 5.07 5.07 0 00-1.17-2.32m-21.33 3.8h-1.1a7 7 0 01-1.48-.43l1-.54a2.11 2.11 0 00.87-1.19.55.55 0 01.37-.4 16.12 16.12 0 01.34 2.13zM126.91 69.07h-1.63l-.9.1-.9.1a1 1 0 01-.44-.06 5.4 5.4 0 01-1.89-2.21 2 2 0 011-.56 4.68 4.68 0 011.14-.11 5.22 5.22 0 011 .08 3.22 3.22 0 012 1.17v-.48a4.12 4.12 0 00-.7-1.57 4 4 0 00-1-1.06 4.36 4.36 0 00-.46-.27 1.58 1.58 0 00-.68-.16 1.23 1.23 0 00-.54.15 7.24 7.24 0 00-2.66 2.81 3 3 0 00-.46 1c0 .57-.05 1-.05 1.3h-.83v-.06h-9.33a.89.89 0 01-.31-.11 2.67 2.67 0 00-.34-.16c-.13 0-.21-.11-.22-.2q-.27-2.16-.71-7.75c-.06-.89-.12-1.57-.17-2a17.51 17.51 0 00-1.12 1.46 1.32 1.32 0 00-.26.48l.85 10.58h18.86l1.16-2.45h-.41zM148.61 62.89a3 3 0 00.44-.74c-.45-.31-.9-.63-1.34-1a6.44 6.44 0 01-1-.86 2.07 2.07 0 01-.17-.92 20.91 20.91 0 00-1.36 2.76l.71.66c.32 1.69.54 3 .65 3.83a14.49 14.49 0 01.22 1.93 4.19 4.19 0 01-.07.69h-3.19q-.6 0-.63-.66-.33-4.59-.53-6.86c-.07-.77-.13-1.41-.2-1.92l-1.48 2.41.88 7h-2.87v-.06h-1.87a.74.74 0 01-.81-.6q-.76-3.6-1.19-5.56l-1 2.29c.13.54.26 1.06.39 1.58a12.09 12.09 0 01.39 2 .67.67 0 01-.1.29h-4.11c-.15 0-.25-.11-.33-.35a5.06 5.06 0 010-1.53c-.05-.08-.09-.13-.12-.14a3.89 3.89 0 00-.54 1.52 14.37 14.37 0 00-.28 2.35c.08.35.19.52.34.52h4.42a3.36 3.36 0 00.44-.93c.14-.39.3-.6.46-.64.24.7.42 1.22.53 1.57h5.57c.39-.58.66-1 .83-1.28a4.05 4.05 0 01.14.65 1 1 0 00.24.63h5.16a.38.38 0 00.18-.06.32.32 0 01.16 0l.46-2.87-.41-4a.54.54 0 010-.25c.59-.9.9-1.38 1-1.44" transform="translate(5.04)"/><path fill="none" d="M0 0h242.98v77.08H0z"/></svg>