<svg id="Capa_1" data-name="Capa 1" xmlns="http://www.w3.org/2000/svg" viewBox="0 0 512 512"><defs><style>.cls-1{fill:#00adb7}</style></defs><path class="cls-1" d="M497 0h-60a15 15 0 00-15 15v15H298.42a45 45 0 00-84.84 0H90V15A15 15 0 0075 0H15A15 15 0 000 15v60a15 15 0 0015 15h60a15 15 0 0015-15V59.8h62.38a197 197 0 00-91 153.64 45 45 0 1030.06.3C96.8 143.09 147.67 82.25 215.7 65a45 45 0 0080.6 0c68 17.27 118.9 78.11 124.23 148.76a45 45 0 1030.06-.3A196.71 196.71 0 00359.62 60H422v15a15 15 0 0015 15h60a15 15 0 0015-15V15a15 15 0 00-15-15zM60 60H30V30h30zm16 211a15 15 0 1115-15 15 15 0 01-15 15zM256 60a15 15 0 1115-15 15 15 0 01-15 15zm180 181a15 15 0 11-15 15 15 15 0 0115-15zm46-181h-30V30h30z"/><path class="cls-1" d="M388.48 307.68l-120-180-.14-.19c-.2-.3-.42-.58-.65-.87a15 15 0 00-24 .87l-.14.19-120 180a15 15 0 001.87 18.93 190 190 0 0154.17 110.9A76.44 76.44 0 00151 497a15 15 0 0015 15h180a15 15 0 0015-15 76.44 76.44 0 00-28.56-59.49 190 190 0 0154.17-110.9 15 15 0 001.87-18.93zM256 301a15 15 0 11-15 15 15 15 0 0115-15zm-72.44 181c6.24-17.83 23.16-31 42.44-31h60c19.28 0 36.2 13.17 42.44 31zm120.68-58.72A73.87 73.87 0 00286 421h-60a73.87 73.87 0 00-18.24 2.28 220.12 220.12 0 00-52.65-108.89L241 185.54v88a45 45 0 1030 0v-88l85.9 128.85a220.06 220.06 0 00-52.66 108.89z"/></svg>