<svg id="Capa_1" data-name="Capa 1" xmlns="http://www.w3.org/2000/svg" viewBox="0 0 512 512"><defs><style>.cls-1{fill:#00adb7;}</style></defs><title>vector</title><path class="cls-1" d="M497,0H437a15,15,0,0,0-15,15V30H298.42a45,45,0,0,0-84.84,0H90V15A15,15,0,0,0,75,0H15A15,15,0,0,0,0,15V75A15,15,0,0,0,15,90H75A15,15,0,0,0,90,75V59.8h62.38a197,197,0,0,0-91,153.64,45,45,0,1,0,30.06.3C96.8,143.09,147.67,82.25,215.7,65a45,45,0,0,0,80.6,0c68,17.27,118.9,78.11,124.23,148.76a45,45,0,1,0,30.06-.3A196.71,196.71,0,0,0,359.62,60H422V75a15,15,0,0,0,15,15h60a15,15,0,0,0,15-15V15A15,15,0,0,0,497,0ZM60,60H30V30H60ZM76,271a15,15,0,1,1,15-15A15,15,0,0,1,76,271ZM256,60a15,15,0,1,1,15-15A15,15,0,0,1,256,60ZM436,241a15,15,0,1,1-15,15A15,15,0,0,1,436,241ZM482,60H452V30h30Z"/><path class="cls-1" d="M388.48,307.68l-120-180v0l-.14-.19c-.2-.3-.42-.58-.65-.87a15,15,0,0,0-24,.87l-.14.19v0l-120,180a15,15,0,0,0,1.87,18.93,190,190,0,0,1,54.17,110.9A76.44,76.44,0,0,0,151,497a15,15,0,0,0,15,15H346a15,15,0,0,0,15-15,76.44,76.44,0,0,0-28.56-59.49,190,190,0,0,1,54.17-110.9A15,15,0,0,0,388.48,307.68ZM256,301a15,15,0,1,1-15,15A15,15,0,0,1,256,301ZM183.56,482c6.24-17.83,23.16-31,42.44-31h60c19.28,0,36.2,13.17,42.44,31Zm120.68-58.72A73.87,73.87,0,0,0,286,421H226a73.87,73.87,0,0,0-18.24,2.28,220.12,220.12,0,0,0-52.65-108.89L241,185.54v88a45,45,0,1,0,30,0v-88l85.9,128.85A220.06,220.06,0,0,0,304.24,423.28Z"/></svg>