<svg height="512pt" viewBox="0 0 512 512" width="512pt" xmlns="http://www.w3.org/2000/svg"><path d="M475.734 44.79h-188.14c-15.649 0-28.336 12.687-28.336 28.335v106.422c0 15.648 12.687 28.336 28.336 28.336h66.926l-10.817 43.66c-1.41 5.687 5.137 9.969 9.785 6.398l65.168-50.058h57.082c15.649 0 28.336-12.684 28.336-28.336V73.125c-.004-15.648-12.687-28.336-28.34-28.336zm0 0" fill="#88dbfd"/><path d="M352.066 217.773l-8.363 33.77c-1.41 5.687 5.137 9.969 9.785 6.398l65.168-50.058h-53.715zm0 0M475.734 44.79H422.02c15.652 0 28.335 12.687 28.335 28.335v106.422c0 15.648-12.683 28.336-28.335 28.336h53.714c15.653 0 28.336-12.684 28.336-28.336V73.125c0-15.648-12.683-28.336-28.336-28.336zm0 0" fill="#5abfe9"/><path d="M402.668 380.441c-1.41-24.046-16.676-43.64-39.395-54.28-27.808-13.02-103.539-32.72-103.539-32.72a15.45 15.45 0 01-12.629-15.187v-43.29h-82.332v43.29a15.45 15.45 0 01-12.625 15.187s-75.73 19.7-103.543 32.72c-22.718 10.64-37.984 30.234-39.394 54.28L7.504 483.648c-.14 11.473 9.125 20.852 20.601 20.852h355.668c11.477 0 20.743-9.379 20.606-20.852zm0 0" fill="#fcc18b"/><path d="M402.668 380.441c-1.41-24.046-16.676-43.64-39.395-54.28-27.808-13.02-103.539-32.72-103.539-32.72a15.45 15.45 0 01-12.629-15.187v-43.29h-53.714v69.255a15.442 15.442 0 0012.625 15.183s75.734 19.703 103.543 32.723c22.718 10.637 37.984 30.234 39.394 54.277l1.625 98.098h33.195c11.477 0 20.743-9.379 20.606-20.852zm0 0M120.586 125.367h-10.809a16.948 16.948 0 00-10.398 3.547c-4.992 3.86-7.184 10.352-6.055 16.563l4.246 23.37c3.293 17.321 23.043 9.407 23.043 9.407zm0 0" fill="#eaab65"/><path d="M291.293 125.367h10.809c3.914 0 7.523 1.324 10.398 3.547 4.992 3.86 7.184 10.352 6.055 16.563l-4.246 23.37c-3.293 17.321-23.043 9.407-23.043 9.407zm0 0" fill="#fcc18b"/><path d="M265.848 36.547C251.793 23.55 232.035 12.21 205.94 11.895c-26.097.316-45.855 11.656-59.91 24.652-17.926 16.574-27.636 41.191-27.636 66.594l.023 88.574c0 41.875 54.426 85.238 87.523 85.238 33.094 0 87.524-43.363 87.524-85.238l.023-88.574c-.004-25.403-9.715-50.02-27.64-66.594zm0 0" fill="#fcc18b"/><path d="M265.848 36.547C251.793 23.55 232.035 12.21 205.94 11.895c-9.843.12-18.785 1.808-26.859 4.562 13.332 4.547 24.297 11.996 33.05 20.09C230.06 53.12 239.77 77.738 239.77 103.14l-.024 88.574c0 31.683-31.16 64.219-60.664 78.176 9.488 4.488 18.805 7.062 26.855 7.062 33.098 0 87.524-43.363 87.524-85.238l.023-88.574c0-25.403-9.71-50.02-27.636-66.594zm0 0" fill="#eaab65"/><path d="M260.098 7.5H151.78c-27.87 0-50.46 22.594-50.46 50.46v69.634s13.894-.317 22.824 8.52c1.859 1.84 5.02.495 5.02-2.122v-54.57c0-12.32 9.987-22.305 22.304-22.305h20.27a23.017 23.017 0 0114.581 5.203l1.989 1.625a27.852 27.852 0 0035.261 0l1.989-1.625a23.017 23.017 0 0114.582-5.203h20.265c12.32 0 22.309 9.985 22.309 22.305v54.574c0 2.613 3.16 3.961 5.02 2.121 8.925-8.84 22.824-8.523 22.824-8.523v-69.63c0-27.87-22.594-50.464-50.461-50.464zm0 0" fill="#426175"/><path d="M260.098 7.5h-18.735c9.426 11.098 15.34 27.766 15.489 49.617h3.558c12.317 0 22.305 9.985 22.305 22.305v54.574c0 2.613 3.16 3.961 5.02 2.121 8.93-8.84 22.824-8.523 22.824-8.523v-69.63c0-27.87-22.594-50.464-50.461-50.464zm0 0" fill="#2c4456"/><path d="M363.273 326.16c-16.183-7.574-48.59-17.414-72.863-24.316l-5.25 1.992a223.675 223.675 0 01-158.441 0l-5.25-1.992c-24.274 6.902-56.68 16.742-72.864 24.316-22.718 10.64-37.984 30.235-39.394 54.281L7.504 483.648c-.14 11.473 9.125 20.852 20.601 20.852h355.668c11.477 0 20.743-9.379 20.606-20.852l-1.711-103.207c-1.41-24.046-16.676-43.64-39.395-54.28zm0 0" fill="#33bca5"/><path d="M332.21 478.637H75.907c-7.793 0-14.265-6.024-14.82-13.801l-10.48-147.074c-.614-8.602 6.199-15.918 14.82-15.918h277.27c8.62 0 15.433 7.316 14.82 15.918L347.03 464.836c-.554 7.777-7.023 13.8-14.82 13.8zm0 0" fill="#f2f2f2"/><path d="M342.695 301.844h-54.11c8.622 0 15.435 7.316 14.821 15.918l-11.465 160.875h40.27c7.797 0 14.27-6.024 14.82-13.801l10.485-147.074c.613-8.602-6.2-15.918-14.82-15.918zm0 0M350.594 504.5H61.285c-7.14 0-12.93-5.79-12.93-12.93 0-7.144 5.79-12.933 12.93-12.933h289.309c7.14 0 12.93 5.789 12.93 12.933 0 7.14-5.79 12.93-12.93 12.93zm0 0" fill="#cdd6df"/><path d="M226.633 396.172c0 11.43-9.266 20.695-20.696 20.695s-20.695-9.265-20.695-20.695 9.266-20.695 20.696-20.695 20.695 9.265 20.695 20.695zm0 0" fill="#fff"/><path d="M370.836 117.043c0-3.797-3.524-6.762-6.3-6.762-.65 0-1.298.094-1.759.465l-23.527 15.281c-2.129 1.391-2.871 3.614-2.871 5.188 0 1.574.742 3.797 2.871 5.187l23.527 15.282c.461.37 1.11.464 1.758.464 2.777 0 6.3-2.964 6.3-6.761 0-1.575-.647-2.965-1.667-3.614l-16.305-10.558 16.305-10.559c1.016-.648 1.668-2.039 1.668-3.613zm0 0M417.426 85.367c-1.668 0-3.153.738-3.89 2.317l-32.513 66.777c-.277.555-.464 1.203-.464 1.762 0 2.312 2.039 4.906 5.191 4.906 1.758 0 3.52-.926 4.168-2.313l32.602-66.78c.277-.556.37-1.204.37-1.763-.003-2.96-2.874-4.906-5.464-4.906zm0 0M464.2 126.027l-23.524-15.28c-.465-.372-1.113-.466-1.762-.466-2.777 0-6.297 2.965-6.297 6.762 0 1.574.649 2.965 1.668 3.613l16.3 10.559-16.3 10.558c-1.02.649-1.668 2.04-1.668 3.614 0 3.797 3.52 6.761 6.297 6.761.649 0 1.297-.093 1.762-.464l23.523-15.282c2.133-1.39 2.871-3.613 2.871-5.187 0-1.574-.738-3.797-2.87-5.188zm0 0"/><path d="M475.734 37.29H314.25C305.906 15.507 284.777 0 260.094 0H151.78c-31.957 0-57.96 26.004-57.96 57.96v65.817c-6.462 5.567-9.466 14.274-7.876 23.04l4.258 23.43c1.531 8.046 5.805 12.183 9.117 14.233 3.707 2.293 7.82 3.051 11.598 3.07v4.165c0 21.125 12.324 44.406 33.812 63.879a138.053 138.053 0 0012.543 10.097v12.563a7.947 7.947 0 01-6.496 7.812c-.175.032-.347.07-.52.114-.128.035-13.003 3.39-29.835 8.164H65.426a22.443 22.443 0 00-16.364 7.12 22.421 22.421 0 00-5.937 16.829l.148 2.117C18.676 332.746 3.2 354.863 1.723 380l-.012.316L.004 483.555c-.094 7.57 2.789 14.707 8.105 20.093C13.434 509.035 20.531 512 28.105 512h355.668c7.57 0 14.672-2.965 19.993-8.352 5.32-5.386 8.203-12.52 8.109-20.125l-1.707-103.207c-.004-.105-.008-.21-.016-.316-1.515-25.863-17.851-48.527-43.703-60.633-.472-.222-.969-.449-1.48-.68l.027-.394a22.457 22.457 0 00-5.937-16.828 22.443 22.443 0 00-16.364-7.121h-51.238c-16.828-4.774-29.707-8.13-29.836-8.16a5.875 5.875 0 00-.52-.118 7.947 7.947 0 01-6.496-7.812v-12.559a138.776 138.776 0 0012.543-10.101c13.657-12.375 23.614-26.29 29.055-40.211h48.73l-8.511 34.355c-1.418 5.73.855 11.52 5.793 14.75 2.32 1.52 4.922 2.274 7.512 2.274 2.93 0 5.843-.961 8.328-2.871l63.148-48.508h54.531c19.762 0 35.836-16.074 35.836-35.836V73.125c0-19.758-16.074-35.836-35.836-35.836zm-174.757 99.444c2.867-.976 5.582-1.379 7.351-1.539 2.356 2.09 3.465 5.532 2.848 8.938l-4.235 23.312c-.617 3.254-1.867 4.028-2.277 4.282-.871.539-2.156.816-3.695.832zM108.82 57.961C108.82 34.273 128.094 15 151.781 15h108.317c23.687 0 42.96 19.273 42.96 42.96v62.84c-3.71.657-8.331 1.915-12.843 4.321v-45.7c0-16.433-13.371-29.804-29.805-29.804h-20.27c-7.027 0-13.89 2.45-19.331 6.895l-1.985 1.625c-3.625 2.965-8.203 4.597-12.886 4.597s-9.258-1.632-12.883-4.593l-1.989-1.63a30.629 30.629 0 00-19.332-6.894H151.47c-16.434 0-29.805 13.367-29.805 29.805v45.695c-4.512-2.402-9.133-3.664-12.844-4.316zm-1.605 113.766c-.41-.254-1.66-1.028-2.266-4.22l-4.246-23.37c-.617-3.407.492-6.844 2.84-8.938 1.77.16 4.488.555 7.36 1.531l.007 35.829c-1.535-.016-2.82-.293-3.695-.832zm-66.36 319.84c0 1.882.258 3.703.735 5.433H28.105c-3.53 0-6.84-1.383-9.324-3.895A13.01 13.01 0 0115 483.77l1.707-103.043c1.11-18.008 11.09-33.622 27.742-43.832l9.156 128.472c.168 2.36.708 4.613 1.551 6.711-8.281 2.61-14.3 10.36-14.3 19.488zm313.657-26.2l9.304-130.543c18.82 10.098 30.168 26.625 31.356 45.903l1.707 103.011a13.047 13.047 0 01-3.781 9.367 13.018 13.018 0 01-9.325 3.895H370.29c.48-1.73.734-3.55.734-5.434 0-10.363-7.753-18.945-17.765-20.254a22.074 22.074 0 001.254-5.945zm1.511 26.2a5.439 5.439 0 01-5.43 5.433H61.286a5.439 5.439 0 01-5.43-5.434 5.438 5.438 0 015.43-5.43h289.309a5.438 5.438 0 015.43 5.43zm-7.941-179.88a7.28 7.28 0 011.953 5.54l-10.484 147.078c-.274 3.832-3.496 6.832-7.34 6.832H75.906c-3.84 0-7.062-3-7.34-6.836l-10.48-147.074a7.28 7.28 0 011.953-5.54 7.29 7.29 0 015.387-2.343h277.27c2.062 0 3.976.832 5.386 2.343zm-101.887-17.343h-80.511a22.917 22.917 0 006.59-16.09v-3.356c11.824 6.122 23.574 9.555 33.663 9.555s21.84-3.433 33.668-9.555v3.356a22.917 22.917 0 006.59 16.09zm10.88-49.867c-16.747 15.171-36.817 24.976-51.138 24.976-14.316 0-34.386-9.805-51.132-24.976-18.36-16.63-28.887-35.864-28.887-52.766l-.016-47.25c.098 0 .196.004.293.004 1.356 0 2.723-.266 4.032-.813a10.445 10.445 0 006.437-9.66v-54.57c0-8.164 6.64-14.805 14.805-14.805h20.27c3.573 0 7.066 1.246 9.831 3.508l1.992 1.629c6.297 5.144 14.243 7.98 22.375 7.98s16.083-2.836 22.38-7.984l1.988-1.625a15.584 15.584 0 019.836-3.508h20.265c8.164 0 14.809 6.64 14.809 14.805v54.57c0 4.238 2.523 8.028 6.437 9.66 1.399.586 2.871.848 4.32.809l-.011 47.254c.004 16.898-10.527 36.133-28.887 52.762zm239.495-64.93c0 11.488-9.343 20.836-20.836 20.836h-57.078a7.484 7.484 0 00-4.566 1.554l-62.211 47.786 9.918-40.036a7.499 7.499 0 00-7.277-9.304h-54.223c.441-2.918.668-5.813.668-8.668v-4.164c3.773-.02 7.887-.778 11.594-3.07 3.316-2.051 7.59-6.188 9.129-14.293l4.246-23.372c1.593-8.765-1.418-17.476-7.875-23.039V57.961c0-1.91-.094-3.805-.278-5.672h157.953c11.493 0 20.836 9.348 20.836 20.836zm0 0"/><path d="M205.938 424.367c15.546 0 28.195-12.648 28.195-28.195s-12.649-28.195-28.196-28.195-28.195 12.648-28.195 28.195 12.649 28.195 28.196 28.195zm0-41.39c7.277 0 13.195 5.921 13.195 13.195 0 7.277-5.918 13.195-13.196 13.195-7.273 0-13.195-5.918-13.195-13.195 0-7.274 5.922-13.195 13.196-13.195zm0 0"/></svg>